<svg preserveAspectRatio="none" width="100%" height="100%" overflow="visible" style="display: block;" viewBox="0 0 32.4531 32.5073" fill="none" xmlns="http://www.w3.org/2000/svg">
<path id="Icon" d="M4.05664 15.3982C2.92078 15.3982 1.96071 14.9847 1.17643 14.1578C0.392142 13.3308 0 12.3185 0 11.1209C0 9.92328 0.392142 8.91099 1.17643 8.08405C1.96071 7.25711 2.92078 6.84364 4.05664 6.84364C5.1925 6.84364 6.15257 7.25711 6.93686 8.08405C7.72114 8.91099 8.11328 9.92328 8.11328 11.1209C8.11328 12.3185 7.72114 13.3308 6.93686 14.1578C6.15257 14.9847 5.1925 15.3982 4.05664 15.3982ZM11.3586 8.55455C10.2227 8.55455 9.26266 8.14108 8.47838 7.31414C7.69409 6.4872 7.30195 5.47491 7.30195 4.27727C7.30195 3.07964 7.69409 2.06735 8.47838 1.24041C9.26266 0.41347 10.2227 0 11.3586 0C12.4945 0 13.4545 0.41347 14.2388 1.24041C15.0231 2.06735 15.4152 3.07964 15.4152 4.27727C15.4152 5.47491 15.0231 6.4872 14.2388 7.31414C13.4545 8.14108 12.4945 8.55455 11.3586 8.55455ZM21.0945 8.55455C19.9587 8.55455 18.9986 8.14108 18.2143 7.31414C17.43 6.4872 17.0379 5.47491 17.0379 4.27727C17.0379 3.07964 17.43 2.06735 18.2143 1.24041C18.9986 0.41347 19.9587 0 21.0945 0C22.2304 0 23.1905 0.41347 23.9747 1.24041C24.759 2.06735 25.1512 3.07964 25.1512 4.27727C25.1512 5.47491 24.759 6.4872 23.9747 7.31414C23.1905 8.14108 22.2304 8.55455 21.0945 8.55455ZM28.3965 15.3982C27.2606 15.3982 26.3006 14.9847 25.5163 14.1578C24.732 13.3308 24.3398 12.3185 24.3398 11.1209C24.3398 9.92328 24.732 8.91099 25.5163 8.08405C26.3006 7.25711 27.2606 6.84364 28.3965 6.84364C29.5323 6.84364 30.4924 7.25711 31.2767 8.08405C32.061 8.91099 32.4531 9.92328 32.4531 11.1209C32.4531 12.3185 32.061 13.3308 31.2767 14.1578C30.4924 14.9847 29.5323 15.3982 28.3965 15.3982ZM7.54535 32.5073C6.32836 32.5073 5.30744 32.0154 4.48259 31.0316C3.65774 30.0479 3.24531 28.8859 3.24531 27.5456C3.24531 26.0629 3.72535 24.7654 4.68542 23.6533C5.64549 22.5412 6.5988 21.4434 7.54535 20.3598C8.32964 19.4759 9.00574 18.5135 9.57367 17.4727C10.1416 16.4319 10.8177 15.4552 11.602 14.5427C12.197 13.8013 12.8866 13.1883 13.6709 12.7035C14.4552 12.2187 15.3071 11.9764 16.2266 11.9764C17.1461 11.9764 17.998 12.2045 18.7822 12.6607C19.5665 13.117 20.2562 13.7158 20.8511 14.4572C21.6084 15.3697 22.2777 16.3534 22.8592 17.4085C23.4406 18.4636 24.1235 19.4473 24.9078 20.3598C25.8543 21.4434 26.8076 22.5412 27.7677 23.6533C28.7278 24.7654 29.2078 26.0629 29.2078 27.5456C29.2078 28.8859 28.7954 30.0479 27.9705 31.0316C27.1457 32.0154 26.1248 32.5073 24.9078 32.5073C23.4474 32.5073 22.0005 32.379 20.5672 32.1223C19.1338 31.8657 17.687 31.7374 16.2266 31.7374C14.7662 31.7374 13.3193 31.8657 11.886 32.1223C10.4526 32.379 9.00574 32.5073 7.54535 32.5073Z" fill="var(--fill-0, #787584)"/>
</svg>
