<svg preserveAspectRatio="none" width="100%" height="100%" overflow="visible" style="display: block;" viewBox="0 0 127 134" fill="none" xmlns="http://www.w3.org/2000/svg">
<g id="Frame 135">
<g id="Vector">
<path d="M27.3052 47.5166C38.8025 36.4264 53.1866 32.5648 68.9662 32.7376C82.575 32.8871 97.4907 37.4188 107.156 47.2934C107.23 47.3704 107.304 47.4491 107.378 47.5268C111.229 47.2008 114.799 47.8119 117.841 50.3198C121.264 53.1442 122.943 57.5385 123.298 61.8358C123.497 64.2267 123.401 66.9078 122.873 69.2553C126.986 79.2659 125.849 91.9941 121.636 101.806C116.254 114.344 105.314 124.209 92.5877 129.23C75.9737 135.787 55.2504 135.601 38.8246 128.567C26.6676 123.361 16.3262 113.622 11.4676 101.346C7.49347 91.3051 7.33213 80.7403 10.2041 70.4118C8.90788 66.9767 8.75059 62.3097 9.54105 58.7438C10.4312 54.7301 12.6996 51.0195 16.2749 48.8185C19.817 46.6376 23.3636 46.5661 27.3052 47.5166Z" fill="#FBD916"/>
<path d="M62.5864 69.6859L70.3655 69.6527C70.6645 70.772 71.0485 71.8639 71.4584 72.9489C75.3867 83.3722 84.8123 93.0157 95.0503 97.6593C98.2254 96.6538 101.297 95.0592 104.125 93.3165C112.831 87.9517 120.536 79.2889 122.873 69.2553C126.986 79.2659 125.849 91.9941 121.636 101.806C116.254 114.344 105.314 124.209 92.5877 129.23C75.9737 135.787 55.2504 135.601 38.8246 128.567C26.6676 123.361 16.3262 113.622 11.4676 101.346C7.49347 91.3051 7.33213 80.7403 10.2041 70.4118C10.7417 71.7775 11.2789 73.1582 11.9139 74.4827C15.9035 82.8031 24.5436 92.6063 33.5635 95.6392C36.2181 96.531 38.5108 96.0523 40.9512 94.8641C50.5283 90.2011 59.2784 79.5802 62.5864 69.6859Z" fill="var(--fill-0, #02CF99)"/>
<path d="M75.2501 88.0746C75.3756 88.1103 75.5048 88.1438 75.6304 88.1817C76.3281 88.391 77.0555 88.8001 77.3656 89.4574C78.056 90.9102 77.5687 93.0193 76.9964 94.4707C75.863 97.3494 73.5813 99.8464 70.6794 101.055C68.346 102.026 65.6656 102.129 63.3249 101.141C59.8359 99.6704 57.9235 96.4982 56.6202 93.1557C56.5168 92.1491 56.3655 91.0984 56.742 90.1286C57.1223 89.1493 57.5247 88.5171 58.4921 88.1307C58.7911 88.2488 58.9499 88.2908 59.2157 88.508C60.5263 89.5759 59.4815 92.0528 59.8692 93.5928C60.2088 94.9563 61.9773 96.7752 63.1698 97.469C64.9272 98.4931 67.6482 99.2062 69.6382 98.6324C74.5818 97.2062 73.4779 90.8078 75.0913 88.3009C75.143 88.2237 75.1984 88.15 75.2501 88.0746Z" fill="black"/>
<path d="M27.3052 47.5166C38.8025 36.4264 53.1866 32.5648 68.9662 32.7376C82.575 32.8871 97.4907 37.4188 107.156 47.2934C107.23 47.3704 107.304 47.4491 107.378 47.5268C102.578 49.5739 99.8611 51.886 96.6121 55.8647C94.4006 52.7457 91.8826 50.26 88.1315 49.0453C84.6758 47.9297 80.9136 48.2071 77.6647 49.8171C73.3856 51.9696 71.355 55.5278 69.9631 59.8893L63.7495 59.8838C62.8191 55.4356 61.0137 51.6564 57.1888 48.9271C54.1983 46.7659 50.4398 45.9161 46.7921 46.5767C42.0921 47.432 39.1053 50.4573 36.4766 54.1698C33.8146 51.135 30.8598 49.3282 27.3052 47.5166Z" fill="var(--fill-0, #02CF99)"/>
<path d="M24.4602 54.0819C25.6992 54.0356 26.9183 54.0101 28.1459 54.2161C32.504 54.9467 34.8521 57.9669 37.2556 61.3447C37.8685 60.3468 38.4813 59.3114 39.205 58.3891C40.9735 56.144 43.7868 54.5435 46.6555 54.2427C49.1328 53.9831 51.6951 54.58 53.6408 56.1564C55.7452 57.8615 56.886 60.5124 57.1371 63.1486C57.7943 70.0771 52.0975 76.2939 47.8886 81.2041C44.7947 84.3402 41.6713 87.4376 38.0863 90.0334C30.3298 85.1459 20.3203 77.8766 17.2593 68.9622C16.1583 65.7561 16.1196 62.0939 17.7385 59.0439C19.1965 56.2971 21.5727 54.9923 24.4602 54.0819Z" fill="black"/>
<path d="M104.797 54.7929C106.281 54.7017 107.777 54.5927 109.246 54.8881C111.561 55.3533 113.573 56.4729 114.899 58.4565C116.604 61.009 117.047 63.9595 116.412 66.9294C114.3 76.7869 103.483 84.847 95.3937 90.078C92.8868 87.9339 90.439 85.7096 87.969 83.5192C85.0487 80.7593 82.0359 77.9331 79.7727 74.6096C77.3803 71.1023 75.7558 66.9111 76.6419 62.6434C77.1588 60.1548 78.4953 57.8484 80.6884 56.4554C82.8519 55.0809 85.5877 54.7265 88.0761 55.307C92.1041 56.2468 94.3562 59.0278 96.4681 62.3204C98.8937 58.851 100.821 56.4787 104.797 54.7929Z" fill="black"/>
<path d="M52.6476 0.196396C55.0696 0.131136 57.2996 0.0760863 59.4557 1.32331C60.951 2.18882 62.0807 3.48416 62.4942 5.17106C63.2289 8.16207 61.9699 10.1618 60.3676 12.5505C61.6266 14.0271 62.9742 15.0439 63.7642 16.8897C64.5174 18.6514 64.7168 20.7156 63.8935 22.49C62.6825 25.1059 59.6698 26.4946 57.0669 27.3492C54.0875 28.0801 49.1808 28.4228 46.2789 27.452C45.3965 27.1577 44.5658 26.6831 44.1966 25.807C42.4207 21.5954 41.4793 7.25938 43.0964 2.9898C45.4076 0.458524 49.4319 0.462174 52.6476 0.196396Z" fill="var(--fill-0, #02CF99)"/>
<path d="M52.6624 15.8288C53.0353 15.8255 53.4082 15.8273 53.7774 15.8343C55.3022 15.8653 56.9673 16.0939 57.9863 17.3652C58.5401 18.0509 58.4293 18.5045 58.2705 19.3047C57.5174 20.3817 56.8344 20.7368 55.6677 21.2742C53.8143 21.6016 51.8612 21.5968 49.9783 21.6847C49.8195 20.1495 49.3912 18.1625 49.9672 16.7096C50.8754 15.8879 51.4957 15.9725 52.6624 15.8288Z" fill="white"/>
<path d="M49.0073 6.01944C51.1302 5.82002 53.8327 5.54074 55.8449 6.37964C56.7051 6.73984 56.9229 7.03443 57.2995 7.85765C56.9857 9.01336 56.7309 9.24597 55.8707 10.1162C53.6259 10.5318 51.3775 10.7426 49.1032 10.9518C48.9408 9.39362 48.5679 7.5339 49.0073 6.01944Z" fill="white"/>
<path d="M84.1811 2.21248C84.8124 2.21212 85.5361 2.19062 86.1305 2.43051C89.4865 3.78966 92.2998 12.8174 93.7397 16.0515C94.467 12.5487 95.8442 5.68 99.1411 3.73789C99.9017 3.28836 100.714 3.20378 101.552 3.50055C102.375 3.79221 103.162 4.4707 103.464 5.29283C104.639 8.48107 99.1079 23.0467 97.3948 26.4982C97.1216 26.7494 96.841 26.9725 96.5309 27.1745C95.7186 27.7035 94.9728 27.9802 94.0018 27.7002C90.7787 26.7705 88.0355 18.7418 86.5624 15.8182C86.16 18.6543 85.7908 22.9512 84.0925 25.3086C83.3688 26.3097 82.3203 26.8919 81.0872 27.0312C79.8245 27.1749 79.2966 26.9335 78.3846 26.1752C77.9527 25.3665 77.8641 24.6243 77.901 23.7248C78.045 19.8993 80.7807 7.76866 82.4126 4.40031C82.8409 3.51657 83.4685 2.87857 84.1811 2.21248Z" fill="var(--fill-0, #02CF99)"/>
<path d="M114.537 7.76363C115.707 7.63202 116.907 7.60394 118.085 7.61961C120.732 7.65534 123.519 8.45889 125.347 10.4531C126.44 11.6431 127.119 13.6107 126.983 15.2072C126.898 16.2076 126.54 17.1869 125.661 17.7699C122.855 19.627 119.872 14.8354 116.996 14.4431C115.799 14.2797 114.692 14.6903 113.75 15.4074C112.004 16.7396 110.631 18.9001 110.335 21.0616C110.125 22.5991 110.309 24.6852 111.332 25.9095C112.023 26.7352 113.174 27.3889 114.271 27.4163C115.408 27.4443 116.113 27.2683 116.94 26.5395C117.228 25.0924 116.265 23.7001 115.888 22.3198C115.607 21.3037 115.796 20.8892 116.309 20.0489C117.291 19.3077 118.214 19.2763 119.396 19.1968L119.875 19.1666C120.241 19.2621 120.599 19.3689 120.957 19.4867C122.781 20.0973 124.627 21.0318 125.443 22.8681C126.034 24.2018 125.775 25.5482 125.192 26.83C123.889 29.6792 120.92 32.2553 117.974 33.3319C115.139 34.3681 111.694 34.1708 108.966 32.8908C106.728 31.8394 105.281 30.0205 104.458 27.7491C103.04 23.8354 103.505 19.1236 105.318 15.4103C107.264 11.4233 110.38 9.18111 114.537 7.76363Z" fill="var(--fill-0, #02CF99)"/>
<path d="M17.6558 7.64219C18.7844 7.72057 19.8536 7.78548 20.7696 8.51427C21.9946 9.48843 22.0581 11.9676 22.1973 13.4095C22.6854 18.46 24.1962 30.1954 20.7349 34.0162C20.1028 34.714 19.2149 35.2284 18.2528 35.2715C14.2262 35.4523 7.86896 28.4582 4.91535 25.7975C2.94714 23.9782 -0.0806875 21.2355 0.00164441 18.2835C0.0230581 17.5212 0.223545 16.9309 0.797284 16.4143C1.50652 15.7759 2.63148 15.6815 3.54489 15.7657C8.47151 16.2218 13.1984 21.7678 16.0678 25.4358C15.4265 20.9399 14.2783 15.5207 15.1884 11.0186C15.5406 9.27732 16.2203 8.60978 17.6558 7.64219Z" fill="var(--fill-0, #02CF99)"/>
<path d="M71.4843 0.0118808C72.6547 -0.0176501 74.0982 -0.0511945 75.0729 0.701297C75.9885 1.4104 76.2248 2.45931 76.2987 3.55086C76.6125 8.06618 74.7111 23.0044 71.8683 26.2543C71.4068 26.2929 70.9083 26.3524 70.4432 26.3141C69.5497 26.2401 68.8593 25.8624 68.3202 25.1514C65.9869 22.0671 67.7147 12.9843 68.1689 9.14022C68.5491 5.925 68.7596 2.13081 71.4843 0.0118808Z" fill="var(--fill-0, #02CF99)"/>
<path d="M29.9243 3.62671C30.9396 3.67447 31.8209 3.69597 32.6036 4.40654C35.5757 7.10442 38.0161 21.218 38.1859 25.4304C38.2635 27.2948 37.9275 28.1848 36.6205 29.5764C36.0926 29.6066 35.5609 29.6343 35.0293 29.6186C34.073 29.5902 33.2793 29.3733 32.6627 28.6128C30.0654 25.4242 27.4939 10.5016 28.024 6.48464C28.2168 5.02378 28.7706 4.51701 29.9243 3.62671Z" fill="var(--fill-0, #02CF99)"/>
</g>
</g>
</svg>
