<svg preserveAspectRatio="none" width="100%" height="100%" overflow="visible" style="display: block;" viewBox="0 0 35.5898 35.5898" fill="none" xmlns="http://www.w3.org/2000/svg">
<path id="Icon" d="M32.8217 35.5898L20.3653 23.1334C19.3767 23.9243 18.2398 24.5504 16.9546 25.0118C15.6694 25.4731 14.3018 25.7038 12.8519 25.7038C9.25995 25.7038 6.21998 24.4598 3.73199 21.9718C1.244 19.4838 0 16.4438 0 12.8519C0 9.25995 1.244 6.21998 3.73199 3.73199C6.21998 1.244 9.25995 0 12.8519 0C16.4438 0 19.4838 1.244 21.9718 3.73199C24.4598 6.21998 25.7038 9.25995 25.7038 12.8519C25.7038 14.3018 25.4731 15.6694 25.0118 16.9546C24.5504 18.2398 23.9243 19.3767 23.1334 20.3653L35.5898 32.8217L32.8217 35.5898ZM12.8519 21.7493C15.3234 21.7493 17.4242 20.8843 19.1543 19.1543C20.8843 17.4242 21.7493 15.3234 21.7493 12.8519C21.7493 10.3804 20.8843 8.27958 19.1543 6.54952C17.4242 4.81946 15.3234 3.95443 12.8519 3.95443C10.3804 3.95443 8.27958 4.81946 6.54952 6.54952C4.81946 8.27958 3.95443 10.3804 3.95443 12.8519C3.95443 15.3234 4.81946 17.4242 6.54952 19.1543C8.27958 20.8843 10.3804 21.7493 12.8519 21.7493Z" fill="var(--fill-0, #444933)"/>
</svg>
