<svg preserveAspectRatio="none" width="100%" height="100%" overflow="visible" style="display: block;" viewBox="0 0 52 52" fill="none" xmlns="http://www.w3.org/2000/svg">
<g id="Frame" clip-path="url(#clip0_0_28)">
<path id="Vector" d="M46.481 31.5C47.0926 33.8191 47.2601 36.4589 47.2627 38.6325C47.2645 40.1063 45.4836 40.5339 44.6255 39.3355C43.9283 38.362 39.5605 32.6026 35.0001 30.5C31.9905 29.1125 28.2698 28.861 26.0873 28.8504C25.0459 28.8454 24.2463 29.7053 24.2463 30.7467V34.2257C24.2463 35.7584 22.5931 36.7215 21.2599 35.9655L4.13715 26.2573C1.43432 24.7248 1.43431 20.8305 4.13713 19.2981L21.2598 9.58976C22.5931 8.83381 24.2463 9.79689 24.2463 11.3296V14.8772C24.2463 15.9235 25.0512 16.7937 26.0929 16.8917C27.8028 17.0525 30.3175 17.3243 31.9311 17.6585C38.4757 19.0139 44.7797 25.0489 46.481 31.5Z" fill="var(--fill-0, #566A00)"/>
</g>
<defs>
<clipPath id="clip0_0_28">
<rect width="52" height="52" fill="white"/>
</clipPath>
</defs>
</svg>
