<svg preserveAspectRatio="none" width="100%" height="100%" overflow="visible" style="display: block;" viewBox="0 0 140.005 168.577" fill="none" xmlns="http://www.w3.org/2000/svg">
<g id="Frame 134">
<g id="Vector">
<path d="M45.1537 137.308C38.6009 124.588 35.5283 112.979 39.8988 98.7285C42.969 88.7172 48.4704 80.5306 57.788 75.6748C72.4042 68.0577 89.4313 67.5357 104.92 72.6826C115.227 76.1074 123.932 82.6663 128.855 92.6725C133.889 102.905 134.451 114.283 130.804 125.045C129.343 129.358 126.773 132.801 124.972 136.867C127.041 138.558 129.274 140.075 131.219 141.91C135.444 145.898 139.406 152.364 139.949 158.302C140.043 159.33 139.997 160.385 139.966 161.417C138.436 163.902 136.419 165.925 133.53 166.662C126.181 168.536 123.097 162.324 118.07 161.536C117.379 161.428 116.903 161.492 116.343 161.946C115.052 162.994 114.192 164.759 113.014 165.971C109.57 169.516 103.422 168.977 99.5585 166.509C97.4857 165.185 95.8251 163.273 94.1169 161.51C87.8634 165.659 82.5958 169.982 74.4806 168.14C69.5956 167.032 69.1197 163.193 66.1714 160.007C61.3041 162.293 54.9221 166.057 49.4108 163.996C46.5378 162.922 45.2719 160.625 43.5895 158.224C32.6683 158.199 20.5437 156.592 12.4518 148.325C7.19199 142.951 5.3028 134.631 5.38776 127.279C5.40605 125.692 5.56852 124.224 5.90029 122.673L4.87957 121.823C2.75815 120.655 1.21871 119.15 0.463717 116.768C-0.643069 113.275 0.366977 109.412 2.06331 106.291C6.03733 98.9815 13.9423 95.8623 21.0653 92.6876C21.1099 87.249 20.5292 78.9293 24.6492 74.772C25.5989 73.8135 26.7207 73.4155 28.0515 73.4451C29.4837 73.4768 30.732 74.0181 31.6593 75.1433C32.5824 76.2632 33.0475 77.5467 33.2385 78.9775C33.7764 83.0067 33.5724 87.1999 33.5712 91.2578L33.6865 107.643C33.7172 110.436 34.3925 113.431 34.0843 116.189C33.4295 122.051 25.2486 126.448 30.6606 133.842C32.3046 136.087 34.8728 137.537 37.5901 137.9C40.0805 138.232 42.6977 137.717 45.1537 137.308Z" fill="#4A54E9"/>
<path d="M20.403 98.2269C20.8281 97.2115 20.9834 96.4198 21.8602 95.7467C22.7892 96.3021 22.9839 97.0394 23.254 98.0746C23.8409 100.325 24.3044 102.453 25.2687 104.591C27.4317 105.988 29.9534 107.493 30.6027 110.206L30.2641 110.713C25.2659 111.082 22.5886 103.487 17.4221 109.359C16.9833 109.858 16.7722 110.279 16.6869 110.937C17.0943 111.987 17.4921 112.359 18.528 112.802C20.3552 113.583 23.8964 114.283 24.8427 116.14C24.6309 117.037 24.5035 117.107 23.8251 117.741C22.2326 117.87 21.7756 116.917 20.4575 116.349C19.1742 115.795 17.2689 115.751 15.8724 115.573C14.6377 116.256 13.4068 116.942 12.2828 117.805C10.2566 119.361 8.38851 122.004 5.90029 122.673L4.87957 121.823C5.87734 119.489 6.92812 118.164 8.89265 116.528C7.34205 113.566 5.89222 108.999 6.99323 105.654C7.14144 105.203 7.40592 104.895 7.72001 104.557L8.2282 104.374C9.58409 105.867 9.8374 112.352 11.1362 115.18C11.8078 114.487 12.6099 113.754 13.0257 112.865C14.4554 109.809 12.5876 100.356 16.6726 99.9994C17.2032 100.55 17.1058 100.245 17.0987 100.965C17.0782 103.066 16.2246 105.243 15.9945 107.362C18.1383 105.45 19.5286 104.911 22.3408 104.495C21.6057 102.418 20.9425 100.365 20.403 98.2269Z" fill="#3F2E9E"/>
<path d="M65.4018 93.4605C68.0757 93.4595 70.5726 93.721 72.926 95.1187C75.8359 96.8468 77.6962 99.9589 78.5238 103.214C79.6577 107.676 78.7864 112.801 76.4272 116.713C74.5965 119.748 72.2139 121.513 69.328 122.692C67.0419 123.626 64.5222 124.13 62.1233 123.557C60.3769 123.14 58.7328 122.314 57.331 121.124C54.2158 118.486 52.6298 114.175 52.2429 110.157C51.8234 105.802 52.9021 101.346 55.7397 97.9762C58.3256 94.9051 61.5778 93.8374 65.4018 93.4605Z" fill="#FFFEF8"/>
<path d="M63.2939 100.775C64.5208 99.8964 66.1119 99.6729 67.5592 100.079C69.0884 100.508 70.5525 101.954 71.2603 103.359C72.4448 105.71 72.4032 108.719 71.553 111.173C70.8831 113.106 69.8788 114.456 68.5004 115.532C67.0357 116.676 65.0491 117.152 63.3247 116.477C61.7862 115.874 60.6293 114.504 60.0207 112.978C59.0025 110.424 59.2902 107.199 60.3295 104.7C61.0585 102.948 61.9776 101.717 63.2939 100.775Z" fill="black"/>
<path d="M101.517 95.9585C104.182 95.7169 106.628 96.0602 109.014 97.3607C112.176 99.0847 114.639 102.248 115.523 105.782C116.609 110.122 115.347 115.554 113.048 119.33C111.682 121.574 109.998 123.305 107.927 124.504C105.472 125.926 102.517 126.325 99.7403 125.789C98.2901 125.509 96.8973 124.99 95.5107 124.117C92.1146 121.981 90.2 118.522 89.3914 114.625C88.4553 110.114 89.2103 105.261 91.8421 101.456C94.2918 97.9138 97.4969 96.6728 101.517 95.9585Z" fill="#FFFEF8"/>
<path d="M99.2828 103.712C100.602 102.489 102.48 101.935 104.228 102.316C105.844 102.66 107.241 103.683 108.072 105.132C109.243 107.218 109.208 109.962 108.591 112.218C107.963 114.511 106.872 116.147 105.297 117.486C103.946 118.636 102.196 119.445 100.463 119.118C99.0614 118.855 97.8643 117.891 97.1602 116.653C95.7261 114.131 95.8861 110.731 96.7444 108.046C97.3307 106.213 98.0922 104.815 99.2828 103.712Z" fill="black"/>
<path d="M71.7667 129.018C70.8526 128.033 69.755 127.071 69.7439 125.61C69.7355 124.565 70.2831 123.669 71.0346 123.003C73.3061 120.987 77.606 120.312 80.5141 120.673C84.3079 121.144 88.077 123.728 90.3879 126.774C91.9134 128.785 92.9294 131.267 92.6479 133.82C92.495 134.486 92.3394 135.156 92.127 135.806C91.0371 139.138 87.2727 142.709 84.2103 144.052C82.1022 144.977 79.3482 145.548 77.1487 144.611C75.4359 143.882 74.0344 142.077 73.4664 140.307C72.4485 137.135 78.6298 134.689 79.7622 131.993C80.0666 131.268 79.9336 130.76 79.6611 130.074C78.8825 129.415 78.3666 129.289 77.4048 129.135C75.554 130.055 74.8316 130.082 72.9421 129.437C72.5486 129.301 72.157 129.161 71.7667 129.018Z" fill="#FB7A48"/>
<path d="M71.7667 129.018C70.8526 128.033 69.755 127.071 69.7439 125.61C69.7355 124.565 70.2831 123.669 71.0346 123.003C73.3061 120.987 77.606 120.312 80.5141 120.673C84.3079 121.144 88.077 123.728 90.3879 126.774C91.9134 128.785 92.9294 131.267 92.6479 133.82C90.6731 133.678 88.6655 133.925 86.7524 133.329C84.3079 131.337 86.5965 129.294 85.4431 127.012C84.1594 125.96 82.6138 125.952 81.0266 126.071C79.538 126.183 77.8342 126.46 76.7958 127.638C76.9695 128.158 77.1729 128.639 77.4048 129.135C75.554 130.055 74.8316 130.082 72.9421 129.437C72.5486 129.301 72.157 129.161 71.7667 129.018Z" fill="#FEC619"/>
<path d="M102.075 87.737C105.107 87.6074 111.128 86.8276 113.823 88.4463C114.547 88.8811 114.669 89.2285 114.85 90.0259C114.647 90.5816 114.607 90.9828 114.136 91.3717C112.871 92.4173 110.799 92.0617 109.26 92.0111C105.901 92.0126 102.19 92.7587 98.8943 92.3745C97.9502 92.2644 97.4559 92.0614 96.8904 91.2914C96.9524 90.9277 96.9412 90.8591 97.1298 90.4878C97.9551 88.8607 100.5 88.243 102.075 87.737Z" fill="black"/>
<path d="M61.2687 83.6433C61.9267 83.6062 62.5868 83.575 63.246 83.5892C67.0888 83.6719 72.0333 85.2899 74.6648 88.2021C75.4201 89.0379 75.9705 89.7764 75.8527 90.9702C75.7906 91.5954 75.697 91.5099 75.257 91.85C69.7941 88.862 70.1578 88.0778 63.4922 86.6984C62.2991 86.4513 60.9943 86.2994 60.2725 85.1889C60.4027 84.361 60.6765 84.2434 61.2687 83.6433Z" fill="black"/>
<path d="M93.0469 35.2045C95.8555 34.9886 98.5607 34.9631 101.108 36.3675C104.026 37.9754 105.8 40.8977 106.604 44.0997C107.855 49.0861 107.346 55.7667 104.652 60.2022C102.772 63.2985 100.201 64.654 96.8182 65.4143C93.9322 65.7695 91.1054 66.087 88.3868 64.7453C85.6641 63.4014 83.9424 60.823 83.0255 57.9618C81.4126 52.9269 82.0188 45.8816 84.5693 41.2479C86.5276 37.69 89.3855 36.325 93.0469 35.2045Z" fill="var(--fill-0, #EB357F)"/>
<path d="M93.4181 42.1053C94.2602 42.0443 95.2183 41.9102 96.0523 42.0559C97.3236 42.2777 98.4426 43.4357 99.0726 44.5131C100.563 47.0622 100.44 51.0379 99.618 53.784C98.8652 56.2985 97.8873 57.4476 95.6245 58.6584C94.8955 58.7321 94.1247 58.8369 93.3939 58.7588C92.0489 58.6157 90.9587 57.7787 90.2127 56.6673C88.7244 54.4498 88.8298 51.1437 89.3368 48.6295C89.9051 45.8098 91.0343 43.6881 93.4181 42.1053Z" fill="#FFFEF8"/>
<path d="M64.9175 35.1695C67.5542 34.9637 70.0068 34.9574 72.4355 36.1623C75.2595 37.5628 77.0377 40.1204 77.9747 43.1091C79.5851 48.2437 79.1247 54.868 76.5177 59.5974C74.5656 63.1386 71.8296 64.587 68.1353 65.6263C65.3773 65.783 62.6906 65.8154 60.1339 64.5933C57.3964 63.2849 55.6551 60.8891 54.7531 58.0049C53.1424 52.8538 53.792 46.0276 56.4014 41.3042C58.3297 37.8142 61.2855 36.2642 64.9175 35.1695Z" fill="var(--fill-0, #EB357F)"/>
<path d="M65.856 41.785C66.5958 41.7812 67.5399 41.7053 68.2425 41.9671C69.7054 42.5125 70.6048 43.8995 71.1366 45.3293C72.2513 48.3246 71.9765 52.6169 70.6839 55.5086C69.9206 57.216 68.9808 58.1021 67.2575 58.7336C66.4457 58.7431 65.5022 58.8205 64.7137 58.6147C63.5017 58.2978 62.5663 57.127 62.0382 56.0417C60.6489 53.1858 61.0888 48.5436 62.1843 45.6603C62.9517 43.6408 63.929 42.65 65.856 41.785Z" fill="#FFFEF8"/>
<path d="M114.477 35.5276C116.803 35.408 119.191 35.2117 121.514 35.4373C125.302 35.8054 129.345 37.2309 131.746 40.3696C134.244 43.6342 134.967 48.5578 134.517 52.6072C134.052 56.7963 132.272 60.2302 129.03 62.8554C128.304 63.2859 127.578 63.665 126.796 63.9832C123.477 65.3337 116.356 66.7893 113.016 65.1672C112.566 64.9489 112.125 64.5993 111.972 64.1074C111.054 61.1704 111.268 38.4162 112.403 36.5751C112.853 35.8451 113.714 35.7176 114.477 35.5276Z" fill="var(--fill-0, #EB357F)"/>
<path d="M118.9 42.3523C120.677 42.4373 122.486 42.6094 124.048 43.5496C125.697 44.5427 126.82 46.1056 127.265 47.9986C127.98 51.0398 127.147 53.9464 125.625 56.5672C123.489 58.3051 121.323 58.2566 118.695 58.485C118.331 53.3856 118.142 47.3985 118.9 42.3523Z" fill="#FFFEF8"/>
<path d="M85.83 0.337349C89.1448 0.08971 92.5734 0.0642221 95.8523 0.678758C98.3291 1.1432 100.827 2.06453 102.244 4.31437C103.65 6.54753 103.731 9.74702 103.111 12.2536C102.444 14.9487 100.587 16.1406 98.3743 17.449C99.6936 20.3279 103.47 24.8313 103.475 27.9509C103.476 28.6686 103.266 29.3587 102.665 29.7939C101.658 30.5236 99.8561 30.4452 98.7002 30.2847C97.3632 30.0994 96.8597 29.8527 96.0489 28.7476C94.9854 26.2954 94.0217 23.5758 92.6609 21.2851C92.0522 20.2602 91.4144 19.4348 90.2347 19.1255C88.2218 20.7892 91.2225 27.0928 88.5399 29.4823C87.5049 30.404 85.7847 30.3398 84.5094 30.1541C83.7724 30.0472 83.1908 29.7536 82.8423 29.0468C82.1673 27.679 82.4562 4.49467 83.2267 2.57083C83.7591 1.24232 84.6226 0.869758 85.83 0.337349Z" fill="var(--fill-0, #EB357F)"/>
<path d="M90.2241 6.39051C91.8839 6.34268 93.6004 6.39209 95.0031 7.39617C95.6719 7.87478 96.1478 8.46823 96.2201 9.32915C96.3314 10.6523 95.5971 11.5777 94.7919 12.5138C93.1409 13.1784 91.5834 13.2461 89.8347 13.3682C89.7206 10.9925 89.8378 8.73601 90.2241 6.39051Z" fill="#FFFEF8"/>
<path d="M37.7042 34.8986C40.4461 34.6343 44.0056 34.3879 46.4975 35.7665C47.5164 36.33 48.7535 37.3407 49.0164 38.5276C49.2759 39.6982 48.9343 41.9744 48.1073 42.8756C46.1168 45.0452 41.8503 41.1588 39.2152 41.4688C37.6974 41.6472 36.4082 42.571 35.4842 43.7705C33.6229 46.1868 32.6866 50.3671 33.1324 53.4102C33.4372 55.4895 34.6229 57.628 36.3856 58.7774C37.4577 59.4769 39.0766 59.9215 40.3348 59.5292C41.3555 59.2113 41.9124 58.5842 42.3601 57.6349C42.7616 56.7831 42.7625 56.1283 42.4726 55.2538C41.4625 54.5122 40.043 55.223 38.8508 54.7136C38.3188 54.1393 38.0589 53.717 37.947 52.9429C37.7777 51.7721 38.1548 50.3121 38.9941 49.4628C40.2201 48.2218 43.1067 48.6532 44.714 48.661C45.9174 48.7032 47.476 48.6639 48.5637 49.262C49.3091 49.672 49.7745 50.3741 50.0071 51.1865C50.6411 53.4008 49.6018 58.9379 48.5399 60.941C47.4364 63.0225 45.2492 64.6758 42.9951 65.2406C39.3069 66.1648 34.6052 66.0464 31.349 63.9574C28.5218 62.1437 27.2041 59.3124 26.5204 56.0877C25.4417 51.0005 26.1648 45.5364 28.9854 41.1318C31.1542 37.7451 33.8015 35.7101 37.7042 34.8986Z" fill="var(--fill-0, #EB357F)"/>
<path d="M53.4484 0C54.8372 0.0113279 56.1928 -0.067968 57.3459 0.810255C57.4656 1.07552 57.6386 1.3219 57.7052 1.60572C58.135 3.43517 51.3329 20.8939 50.0614 24.3908C49.293 26.5031 48.7073 28.3788 46.5093 29.3319C44.9411 30.0119 42.4494 30.4996 40.8601 29.7359C37.1155 27.937 34.9631 15.4748 33.6171 11.2841C32.4848 7.61735 31.4392 4.06292 31.1134 0.213027C32.8671 0.132159 34.9739 -0.146318 36.6954 0.253618C37.2367 0.379168 37.7316 0.532724 38.072 0.996536C40.4294 4.2105 40.9903 17.0682 43.3877 21.364C46.2117 19.4188 48.2329 5.3414 50.7847 1.26054C51.4824 0.144744 52.2956 0.202957 53.4484 0Z" fill="var(--fill-0, #EB357F)"/>
<path d="M64.4744 0.364343C67.6854 0.309592 74.4245 -0.413503 77.1344 0.875355C77.873 1.22652 78.4336 1.83728 78.623 2.65918C78.841 3.606 78.5126 5.18025 77.89 5.93576C76.3828 7.7652 70.3379 6.83601 67.9108 7.18402L67.4842 7.24884L67.4501 11.5459C69.3371 11.5695 73.4444 10.9955 74.9104 12.1352C75.4607 12.5629 75.723 13.2032 75.8192 13.881C75.9875 15.0666 75.8055 16.5707 74.986 17.4854C73.4503 19.2 69.2614 18.5949 67.1233 18.6088C67.1065 20.0402 66.8265 21.9773 67.4823 23.28L68.2869 23.4776C70.9708 23.4436 73.8844 22.8268 76.5264 23.2818C77.3245 23.8558 77.7663 24.3419 77.949 25.3514C78.153 26.4766 77.9415 27.6069 77.215 28.5037C76.2653 29.6764 74.596 29.9549 73.1871 30.043C70.1593 30.2321 63.0091 30.4952 60.7726 28.4952C59.8614 25.4505 60.2567 3.59593 61.4495 1.0544C62.3521 0.309592 63.3684 0.409969 64.4744 0.364343Z" fill="var(--fill-0, #EB357F)"/>
<path d="M117.634 11.4354C119.283 8.80454 121.594 2.45906 123.916 0.988325C125.272 0.129296 127.223 -0.0220578 128.749 0.352705C129.103 0.694114 129.369 0.814002 129.466 1.32848C130.044 4.36874 124.665 12.0078 122.891 14.8199C119.874 20.0597 122.383 25.0138 120.477 29.2271C120.142 29.9681 119.657 30.2268 118.898 30.4159C117.39 30.7919 115.814 30.3832 114.51 29.6141C112.94 27.6569 114.045 21.5358 113.574 18.8388C112.698 13.8212 105.274 4.75389 105.109 1.78757C105.524 0.884487 105.892 0.773726 106.707 0.25233C108.702 0.20576 110.636 0.40557 112.617 0.616394L117.634 11.4354Z" fill="var(--fill-0, #EB357F)"/>
</g>
</g>
</svg>
