<svg preserveAspectRatio="none" width="100%" height="100%" overflow="visible" style="display: block;" viewBox="0 0 184 131" fill="none" xmlns="http://www.w3.org/2000/svg">
<g id="Frame 137">
<g id="Vector">
<path d="M43.3612 61.183C61.1434 44.6076 82.1055 34.6964 106.56 35.7787C127.692 36.6855 147.608 46.0994 161.944 61.9534C175.86 77.4612 181.705 97.7174 184 118.159C180.853 119.066 178.889 120.114 176.406 122.259C174.395 119.426 172.718 117.286 169.103 116.672C168.818 116.623 168.532 116.584 168.245 116.55C162.828 117.34 159.981 118.953 156.385 123.229C155.675 123.326 155.39 123.292 154.747 122.966C153.339 122.147 151.54 121.372 149.923 121.181C145.717 120.694 144.306 122.815 141.398 125.155C140.149 123.99 139.413 116.706 138.951 114.629C136.996 105.854 133.959 97.5809 128.477 90.4241C121.655 81.5173 111.496 74.7555 100.364 73.3855C88.4381 71.9132 76.7762 75.8719 67.4482 83.3893C67.5114 79.1041 66.1873 75.4818 64.3214 71.7182C62.1194 71.6451 59.9054 71.6743 57.7014 71.6548C57.2151 69.4415 56.6351 67.6426 55.5864 65.634C54.8051 64.7663 54.0017 63.9473 53.1018 63.2014C50.1165 60.7394 46.9973 60.7638 43.3612 61.183Z" fill="#FBD916"/>
<path d="M43.3612 61.183C61.1434 44.6076 82.1055 34.6964 106.56 35.7787C127.692 36.6855 147.608 46.0994 161.944 61.9534C175.86 77.4612 181.705 97.7174 184 118.159C180.853 119.066 178.889 120.114 176.406 122.259C174.395 119.426 172.718 117.286 169.103 116.672C168.818 116.623 168.532 116.584 168.245 116.55C166.42 100.779 161.577 86.2072 151.782 73.678C140.854 59.6961 127.007 51.306 109.538 49.317C89.5073 47.0403 71.2354 52.8465 55.5864 65.634C54.8051 64.7663 54.0017 63.9473 53.1018 63.2014C50.1165 60.7394 46.9973 60.7638 43.3612 61.183Z" fill="#FA4608"/>
<path d="M64.3214 71.7182C78.7262 63.6255 96.0177 59.4817 112.154 64.2643C126.353 68.3545 138.355 78.0707 145.481 91.2433C150.896 101.296 153.006 111.748 154.747 122.966C153.339 122.147 151.54 121.372 149.923 121.181C145.717 120.694 144.306 122.815 141.398 125.155C140.149 123.99 139.413 116.706 138.951 114.629C136.996 105.854 133.959 97.5809 128.477 90.4241C121.655 81.5173 111.496 74.7555 100.364 73.3855C88.4381 71.9132 76.7762 75.8719 67.4482 83.3893C67.5114 79.1041 66.1873 75.4818 64.3214 71.7182Z" fill="#02CF99"/>
<path d="M11.5094 77.2223C10.5636 75.2332 9.98783 72.9955 10.148 70.7676C10.2833 68.8955 10.9715 67.4281 12.4318 66.2581C15.8747 63.4939 20.3697 63.9375 23.9025 61.8607C26.323 60.4371 28.823 57.2732 31.8986 57.7266C34.9662 58.1702 37.8893 61.4853 39.6356 63.8644C40.8129 62.8845 42.105 62.0508 43.3612 61.183C46.9973 60.7638 50.1165 60.7394 53.1018 63.2014C54.0017 63.9473 54.8051 64.7663 55.5864 65.634C56.6351 67.6426 57.2151 69.4415 57.7014 71.6548C59.9054 71.6743 62.1194 71.6451 64.3214 71.7182C66.1873 75.4818 67.5114 79.1041 67.4482 83.3893C67.1001 85.3735 66.7806 86.8702 65.7411 88.6204C69.6755 89.9171 74.4095 89.7026 78.5191 89.8245C77.3289 92.2864 76.1104 94.7143 74.8007 97.1129C77.4498 95.8307 80.0622 94.1049 83.0876 94.763C83.9966 95.4407 84.6345 95.7527 84.7603 97.0202C84.9779 99.2189 83.1823 101.739 81.7387 103.251C80.9917 104.036 80.1272 104.713 79.2837 105.386C81.7128 106.127 86.5539 107.512 87.758 110.086C88.2142 111.061 87.9058 111.373 87.5433 112.27C84.2678 115.18 79.078 114.805 74.9953 114.936C74.7557 118.481 74.3809 124.341 71.5314 126.841C71.1737 127.154 70.6486 127.1 70.1905 127.163C68.3993 126.208 67.4759 124.248 66.9227 122.332C66.2809 120.109 66.0203 117.632 65.6483 115.346C63.1507 115.556 56.7144 116.847 54.8983 115.019C54.3933 114.512 54.564 113.966 54.5578 113.284C55.4176 111.192 57.2007 109.949 58.8309 108.501C53.4728 109.33 47.6772 109.198 42.246 109.549C44.7115 106.79 47.0671 103.914 49.4613 101.091C41.6827 101.33 33.1232 101.583 25.5197 99.7064C17.129 97.6345 9.09505 92.0915 4.61639 84.5009C2.85572 81.5173 -0.95395 73.9315 0.220945 70.3337C0.484424 69.5293 0.738812 69.6366 1.44461 69.305C5.11514 71.3234 7.047 75.4136 11.0656 77.0468L11.5094 77.2223Z" fill="#9F97FE"/>
<path d="M11.5094 77.2223C10.5636 75.2332 9.98783 72.9955 10.148 70.7676C10.2833 68.8955 10.9715 67.4281 12.4318 66.2581C15.8747 63.4939 20.3697 63.9375 23.9025 61.8607C26.323 60.4371 28.823 57.2732 31.8986 57.7266C34.9662 58.1702 37.8893 61.4853 39.6356 63.8644C40.8129 62.8845 42.105 62.0508 43.3612 61.183C46.9973 60.7638 50.1165 60.7394 53.1018 63.2014C54.0017 63.9473 54.8051 64.7663 55.5864 65.634C56.6351 67.6426 57.2151 69.4415 57.7014 71.6548C59.9054 71.6743 62.1194 71.6451 64.3214 71.7182C66.1873 75.4818 67.5114 79.1041 67.4482 83.3893C67.1001 85.3735 66.7806 86.8702 65.7411 88.6204C60.2793 88.1718 54.6282 90.6679 49.9042 86.4217C48.0532 84.7592 46.5842 82.3851 44.5127 81.0249C42.2327 79.5331 38.4709 81.6002 36.1048 82.1901C31.9475 83.2285 27.3211 79.3235 23.2656 78.5337C18.2394 77.5538 16.5987 80.2546 11.5094 77.2223Z" fill="black"/>
<path d="M74.8007 97.1129C77.4498 95.8307 80.0622 94.1049 83.0876 94.763C83.9966 95.4407 84.6345 95.7527 84.7603 97.0202C84.9779 99.2189 83.1823 101.739 81.7387 103.251C80.9917 104.036 80.1272 104.713 79.2837 105.386C81.7128 106.127 86.5539 107.512 87.758 110.086C88.2142 111.061 87.9058 111.373 87.5433 112.27C84.2678 115.18 79.078 114.805 74.9953 114.936C74.7557 118.481 74.3809 124.341 71.5314 126.841C71.1737 127.154 70.6486 127.1 70.1905 127.163C68.3993 126.208 67.4759 124.248 66.9227 122.332C66.2809 120.109 66.0203 117.632 65.6483 115.346C63.1507 115.556 56.7144 116.847 54.8983 115.019C54.3933 114.512 54.564 113.966 54.5578 113.284C55.4176 111.192 57.2007 109.949 58.8309 108.501L62.3775 105.893C61.7229 104.182 61.0142 102.461 60.472 100.711C60.045 99.3311 59.7246 97.5614 60.4882 96.2402C60.8899 95.5431 61.2313 95.6162 61.9481 95.3773C65.6932 96.2159 67.6724 98.7948 70.1824 101.496C71.8307 100.155 73.3011 98.6144 74.8007 97.1129Z" fill="#FBD916"/>
<path d="M32.1373 12.3877C33.6641 12.2756 35.07 12.1927 36.449 12.9825C41.2232 15.7272 51.6983 29.2362 53.0922 34.6086C52.9592 35.7689 52.6929 36.7537 51.7523 37.524C51.2091 37.9725 50.5832 38.2162 49.8912 38.1382C47.7275 37.8798 45.5283 34.1016 44.242 32.3807L37.941 34.1406C38.1126 34.7744 38.2795 35.413 38.4416 36.0468C38.8973 37.8408 39.8221 40.8976 38.6922 42.5746C38.0012 43.5984 37.2581 44.0956 36.0933 44.3686C34.9571 44.2175 34.2776 43.8519 33.5383 42.9305C29.6129 38.031 28.9779 23.6493 29.5412 17.4676C29.7645 15.0203 30.2255 13.9673 32.1373 12.3877Z" fill="var(--fill-0, #7403C9)"/>
<path d="M36.0015 21.5286C37.6699 22.879 39.89 25.029 40.4127 27.1838C39.0068 27.5933 38.2896 28.0077 36.8364 27.5202C35.7514 25.9748 36.0359 23.3958 36.0015 21.5286Z" fill="white"/>
<path d="M137.141 6.94708C137.8 6.96658 138.545 6.95682 139.185 7.12258C140.475 7.45409 140.803 8.09764 141.448 9.16529C141.807 11.6126 140.628 14.4548 139.943 16.8047C142.614 17.7212 145.382 18.3939 148.103 19.1398C148.91 17.1459 149.715 15.1569 150.846 13.3287C151.913 11.6029 152.843 10.6035 154.802 10.1452C155.548 10.9106 155.821 11.5834 156.014 12.651C157.132 18.8425 151.944 31.0108 148.567 36.0273C147.78 36.4905 146.801 36.822 145.874 36.7684C144.674 36.6952 144.352 36.1785 143.681 35.3107C142.861 31.9468 144.14 28.856 145.196 25.7164L137.796 23.2788C137.769 23.3666 137.743 23.4543 137.716 23.5421C136.719 26.7207 135.781 29.4117 133.094 31.5129C132.237 31.7177 131.851 32.0053 131.088 31.4496C130.182 30.7817 129.782 29.2363 129.667 28.1832C129.039 22.3916 133.692 11.52 137.141 6.94708Z" fill="var(--fill-0, #7403C9)"/>
<path d="M165.19 17.2044C165.764 17.1654 166.335 17.141 166.911 17.1605C170.301 17.2873 175.826 19.6517 178.003 22.3623C178.92 23.5079 178.909 24.0881 178.848 25.4678C178.47 26.082 178.076 26.8523 177.477 27.2667C175.613 28.5537 170.155 24.7804 167.867 24.2929C166.922 24.9462 166.713 25.5506 166.322 26.6232C166.692 28.5488 169.743 28.4319 171.093 30.1138C171.939 31.1717 171.976 31.7713 171.939 33.0437C171.424 33.7409 171.244 34.1114 170.431 34.4575C167.94 35.5155 165.845 33.9895 163.566 33.0827L161.99 33.7848C161.909 34.4478 161.901 35.1254 161.865 35.7933C163.329 37.6946 166.134 38.3528 168.063 39.8104C168.744 41.156 168.767 41.4339 168.66 42.9501C167.784 44.1006 167.209 44.6661 165.667 44.7879C162.717 45.0171 159.348 43.5692 157.241 41.4826C155.807 40.064 154.976 38.2992 155.022 36.2419C155.142 30.928 161.528 20.8023 165.19 17.2044Z" fill="var(--fill-0, #7403C9)"/>
<path d="M107.135 2.23278C111.339 1.84277 125.409 2.80317 128.581 5.33824C129.289 5.90376 129.89 6.88853 129.89 7.82943C129.89 9.12135 129.408 9.44799 128.553 10.2183C126.297 11.0275 123.628 10.579 121.274 10.4181C120.815 13.8405 120.298 17.2579 119.723 20.6608C119.43 22.3427 119.207 24.3367 118.384 25.8479C117.667 27.1642 116.434 27.6956 115.074 28.0564C114.375 27.8468 114.124 27.8663 113.689 27.2617C111.095 23.6688 113.63 13.7478 114.202 9.33584C112.341 9.11158 110.38 8.94581 108.608 8.28279C107.078 7.7124 106.587 7.06888 105.936 5.66484C105.92 4.15842 106.295 3.44669 107.135 2.23278Z" fill="var(--fill-0, #7403C9)"/>
<path d="M51.7906 5.60642C52.9162 5.53329 54.3493 5.40654 55.3707 5.97693C59.2215 8.13175 60.4457 20.3294 61.4413 24.5951C65.0042 23.391 67.8183 22.5281 71.4051 24.327C71.9555 25.0485 72.428 25.3946 72.34 26.3892C72.2047 27.9102 70.8968 29.2021 69.8286 30.1382C67.6591 31.0255 65.2337 31.7128 62.9365 32.1467C61.348 32.4441 58.6391 32.8439 57.2992 31.7616C53.5135 28.7146 51.3765 16.2928 50.7127 11.4127C50.3828 8.98979 50.2436 7.65886 51.7906 5.60642Z" fill="var(--fill-0, #7403C9)"/>
<path d="M74.1805 0C75.2889 0.0146254 76.6441 0.0780023 77.5029 0.85315C80.9669 3.95862 80.8119 15.8686 81.2475 20.4415C83.9995 19.8955 88.459 18.6767 90.9365 20.5536C91.7647 21.1825 91.6834 21.6798 91.8259 22.6207C91.4037 24.132 90.6123 24.9412 89.5593 26.0235C89.4666 26.0576 89.3743 26.0967 89.2805 26.1308C86.6281 27.0668 80.1277 29.246 77.501 27.6713C75.8307 26.667 75.1282 23.859 74.7137 22.0454C73.4517 16.5268 71.1804 4.89464 74.1805 0Z" fill="var(--fill-0, #7403C9)"/>
<path d="M12.7589 107.619C14.3561 107.658 15.969 107.794 17.535 108.121C19.496 108.535 21.9549 108.896 23.1183 110.666C22.1562 111.938 21.0659 112.075 19.6266 112.582C17.0277 113.147 14.5765 113.742 11.9393 113.035C10.1868 112.567 9.18786 112.094 8.26401 110.51L8.72018 109.574C10.0887 108.511 11.1087 108.062 12.7589 107.619Z" fill="var(--fill-0, #7403C9)"/>
<path d="M33.492 114.702C33.7675 115.063 33.9994 115.346 34.1108 115.799C35.0141 119.48 33.7574 126.125 31.5525 129.24C30.6813 130.469 29.4915 130.449 28.1474 130.707C27.8016 130.191 27.4349 129.64 27.2647 129.026C26.1778 125.13 31.6027 117.813 33.492 114.702Z" fill="var(--fill-0, #7403C9)"/>
<path d="M18.0419 121.055C18.7458 121.328 18.7157 121.484 19.1198 122.098C19.0428 122.883 18.9098 123.361 18.5201 124.058C16.5615 127.534 13.2941 130.04 9.47625 131C8.50936 129.815 8.33674 129.274 8.42712 127.797C10.2299 124.433 14.8223 122.737 18.0419 121.055Z" fill="var(--fill-0, #7403C9)"/>
</g>
</g>
</svg>
