<svg preserveAspectRatio="none" width="100%" height="100%" overflow="visible" style="display: block;" viewBox="0 0 118 169" fill="none" xmlns="http://www.w3.org/2000/svg">
<g id="Frame 132">
<g id="Vector">
<path d="M32.7326 32.9322C32.6159 29.4343 32.4659 25.9489 32.7513 22.4549C33.2944 15.8098 34.8827 7.50672 40.2629 2.99179C42.6247 1.00981 45.7894 -0.278942 48.9022 0.0516483C51.1154 0.28663 53.1355 1.35813 54.4695 3.16452C57.8721 7.77141 56.6951 16.6989 55.5505 21.9446C54.8494 25.1562 53.7188 28.2664 53.259 31.5301L53.2014 31.9576C56.1027 31.9555 59.0011 32.1426 61.8783 32.5177C62.2831 30.82 62.4585 29.0659 62.8356 27.3567C63.9176 22.4502 65.8321 17.4656 68.5144 13.2117C71.0018 9.267 74.7291 5.16394 79.4727 4.18519C82.4265 3.57586 86.6402 3.89081 89.1295 5.66698C90.8146 6.86899 91.6257 8.76682 91.9164 10.7678C93.0843 18.8106 85.0073 32.4002 80.2354 38.5999C87.9517 45.3706 92.5991 52.63 93.6508 62.976L93.7699 66.9978C93.8708 76.5044 89.3685 84.0738 83.4089 91.1702L83.6406 91.9543C81.8122 93.6424 80.0319 94.8903 77.86 96.1069C76.9723 96.6044 75.8282 97.0213 75.0529 97.6543C73.7119 101.247 71.9575 105.787 72.1371 109.656C59.5684 107.76 46.9579 106.157 35.0711 112.061C32.9519 113.113 31.1978 114.791 29.1343 115.924C29.9029 117.177 30.7512 118.415 31.2852 119.79C31.1767 120.809 31.115 121.853 30.8493 122.843C29.945 123.218 29.5173 124.088 28.6208 124.419C27.731 124.75 26.9648 123.281 26.2953 124.495C26.1858 124.695 26.0459 125.149 25.9715 125.375C26.6215 126.087 27.0271 126.576 26.9894 127.598C26.9464 128.767 26.3804 129.749 25.9533 130.794C25.8755 130.987 25.8249 131.216 25.7756 131.419C24.371 132.592 22.8683 132.98 21.0537 132.829C19.7666 132.719 18.5151 132.347 17.3763 131.734C17.1892 131.445 16.9935 131.159 16.7896 130.88C15.221 128.757 13.2971 127.806 10.7394 127.42C10.9299 127.423 11.1112 127.337 11.2942 127.285C10.2132 126.214 8.52287 125.834 7.27786 124.956C3.50546 122.294 0.872979 118.409 0.190013 113.803C-0.409918 109.755 0.387481 105.18 2.91461 101.906C7.36894 96.1329 14.3862 94.054 21.2384 93.0563L21.6295 92.715C21.7613 92.0194 21.9575 91.3265 22.1254 90.6387C19.3951 88.625 17.2719 85.2409 15.4916 82.4144C10.6815 74.7788 9.29848 66.9952 11.3422 58.126C14.3164 45.2179 22.1905 39.4973 32.7326 32.9322Z" fill="#FD99BE"/>
<path d="M74.3108 63.5802C73.5995 64.6535 73.0178 65.819 72.2619 66.8597C69.6395 70.4699 65.8341 72.9286 61.4099 73.5807C57.7885 74.1145 54.0865 73.3606 51.1711 71.0634C47.8233 68.4259 46.2606 65.0958 45.7116 60.9115C45.6145 60.1708 45.6555 60.1852 45.0771 59.76C44.8298 59.7762 44.5543 59.6923 44.3355 59.809C42.9226 60.5632 41.648 65.3563 37.442 67.6126C34.0993 69.406 30.0791 69.9017 26.4665 68.6846C22.7821 67.4433 19.4309 64.9356 17.6957 61.3882C16.2727 58.4796 15.8951 55.0481 16.9795 51.9678C18.5398 47.536 20.7355 44.5565 25.0396 42.5039C28.4202 40.8916 32.0966 40.4905 35.6407 41.8696C40.0247 43.5757 42.4618 46.91 44.3179 51.0797C45.1332 51.26 46.47 51.6969 47.2825 51.5166C49.7087 50.9784 51.9099 46.8029 57.1845 45.541C61.0511 44.6159 65.3593 45.2135 68.716 47.3896C73.1151 50.2414 74.1758 54.6654 75.1595 59.4354C81.2453 60.7335 87.7033 61.1756 93.6508 62.976L93.7699 66.9978C87.2825 65.9732 80.6936 65.1641 74.3108 63.5802Z" fill="var(--fill-0, #FEC619)"/>
<path d="M58.4576 49.7977C63.8048 48.9042 68.8588 52.5383 69.7371 57.9085C70.6157 63.2787 66.985 68.3446 61.6342 69.2153C56.2997 70.083 51.2719 66.4515 50.3961 61.0977C49.5203 55.7436 53.1267 50.6884 58.4576 49.7977Z" fill="black"/>
<path d="M66.252 55.5949C67.1288 55.7119 67.3348 55.7325 68.0738 56.2813C68.2645 56.6596 68.3948 56.9392 68.353 57.3802C68.1166 59.8618 65.0664 62.4938 63.2022 63.9198C62.696 64.1207 62.5893 64.147 62.0525 64.0748C62.0343 63.9959 62.0055 63.9188 61.9982 63.838C61.8293 61.9399 64.9654 56.9655 66.252 55.5949Z" fill="#FFFEF8"/>
<path d="M28.9986 45.8372C34.1673 45.0085 39.0293 48.5353 39.8685 53.7221C40.7074 58.9092 37.2072 63.7995 32.0429 64.6555C26.8594 65.5144 21.9666 61.9845 21.1243 56.7784C20.282 51.5724 23.811 46.6692 28.9986 45.8372Z" fill="black"/>
<path d="M35.8312 51.7216C36.3683 51.7185 36.8421 51.7885 37.3697 51.8886C37.9956 52.3862 38.0443 52.4271 38.2701 53.1922C37.8196 55.9601 34.5963 58.4056 32.6255 60.2682C32.433 60.418 32.0243 60.5881 31.8022 60.7014L31.477 60.4428C31.7225 58.1299 34.2522 53.4842 35.8312 51.7216Z" fill="#FFFEF8"/>
<path d="M10.7394 127.42C10.9299 127.423 11.1112 127.337 11.2942 127.285C10.2132 126.214 8.52287 125.834 7.27786 124.956C3.50546 122.294 0.872979 118.409 0.190013 113.803C-0.409918 109.755 0.387481 105.18 2.91461 101.906C7.36894 96.1329 14.3862 94.054 21.2384 93.0563L21.6295 92.715C22.1822 96.1798 22.1152 101.322 21.2192 104.717C20.5051 106.715 19.6491 108.773 18.025 110.208C18.8566 111.201 19.6701 111.907 20.7327 112.636C22.7219 112.827 26.9316 112.879 28.3694 114.39C28.7996 114.843 28.8159 115.322 28.8385 115.911L29.1343 115.924C29.9029 117.177 30.7512 118.415 31.2852 119.79C31.1767 120.809 31.115 121.853 30.8493 122.843C29.945 123.218 29.5173 124.088 28.6208 124.419C27.731 124.75 26.9648 123.281 26.2953 124.495C26.1858 124.695 26.0459 125.149 25.9715 125.375C26.6215 126.087 27.0271 126.576 26.9894 127.598C26.9464 128.767 26.3804 129.749 25.9533 130.794C25.8755 130.987 25.8249 131.216 25.7756 131.419C24.371 132.592 22.8683 132.98 21.0537 132.829C19.7666 132.719 18.5151 132.347 17.3763 131.734C17.1892 131.445 16.9935 131.159 16.7896 130.88C15.221 128.757 13.2971 127.806 10.7394 127.42Z" fill="#FD99BE"/>
<path d="M28.8385 115.911L29.1343 115.924C29.9029 117.177 30.7512 118.415 31.2852 119.79C31.1767 120.809 31.115 121.853 30.8493 122.843C29.945 123.218 29.5173 124.088 28.6208 124.419C27.731 124.75 26.9648 123.281 26.2953 124.495C26.1858 124.695 26.0459 125.149 25.9715 125.375C24.9569 125.217 23.6486 124.526 22.84 123.906C22.28 123.479 22.0997 123.177 21.9767 122.497C22.2964 121.908 22.5234 121.765 23.12 121.476C25.0669 121.353 26.0968 122.651 27.702 123.484C28.3546 123.823 28.6216 123.857 29.3022 123.614C29.8054 122.812 30.2405 122.004 30.4406 121.067C30.8496 119.154 29.7665 117.912 28.7698 116.424L28.8385 115.911Z" fill="#F980BB"/>
<path d="M21.2192 104.717C20.5051 106.715 19.6491 108.773 18.025 110.208C17.9892 109.81 17.9515 109.411 17.9928 109.01C18.1799 107.184 19.9293 105.827 21.2192 104.717Z" fill="#EB9111"/>
<path d="M22.1254 90.6387C24.3191 92.2956 26.5893 94.1791 29.0064 95.4842C37.9042 100.291 50.5544 102.583 60.5168 101.203C65.2633 100.546 70.2127 99.1054 74.5202 96.99L75.0529 97.6543C73.7119 101.247 71.9575 105.787 72.1371 109.656C59.5684 107.76 46.9579 106.157 35.0711 112.061C32.9519 113.113 31.1978 114.791 29.1343 115.924L28.8385 115.911C28.8159 115.322 28.7996 114.843 28.3694 114.39C26.9316 112.879 22.7219 112.827 20.7327 112.636C19.6701 111.907 18.8566 111.201 18.025 110.208C19.6491 108.773 20.5051 106.715 21.2192 104.717C22.1152 101.322 22.1822 96.1798 21.6295 92.715C21.7613 92.0194 21.9575 91.3265 22.1254 90.6387Z" fill="var(--fill-0, #FEC619)"/>
<path d="M74.5202 96.99C75.5151 95.8281 82.0806 91.4124 83.4089 91.1702L83.6406 91.9543C81.8122 93.6424 80.0319 94.8903 77.86 96.1069C76.9723 96.6044 75.8282 97.0213 75.0529 97.6543L74.5202 96.99Z" fill="#EB357F"/>
<path d="M40.745 66.4132C42.2254 66.3324 43.9242 66.4103 45.3415 66.8978C46.4719 67.2864 47.6341 68.0294 48.1515 69.1512C48.5114 69.9314 48.5272 70.7473 48.2083 71.5471C47.4478 73.4543 45.5403 74.2278 43.7831 74.9366C43.2882 76.5812 43.0472 78.236 42.7942 79.9309C44.1178 79.7697 45.4853 79.55 46.7451 79.0936C48.2558 78.546 50.4308 76.7417 51.8769 76.6703C52.2462 76.6521 52.3759 76.9069 52.6276 77.1374C52.9136 77.9763 52.9455 78.5064 52.5119 79.3083C51.2973 81.5547 47.3531 82.5082 45.0309 82.9771C41.0206 83.222 37.2474 82.9432 33.9852 80.2451C32.8323 79.2911 31.4022 77.4727 31.4728 75.8659C31.506 75.1099 31.6347 75.0007 32.1342 74.493C34.1476 74.2327 34.6297 76.445 36.0831 77.5199C37.4072 78.4989 38.9333 78.9946 40.4715 79.5159C40.7855 77.97 40.9669 76.3874 41.1885 74.8254C40.3568 73.7818 39.5765 72.7835 39.0693 71.5302C38.603 70.3784 38.2366 68.8943 38.8778 67.7251C39.3181 66.9222 39.944 66.719 40.745 66.4132Z" fill="black"/>
<path d="M29.1343 115.924C31.1978 114.791 32.9519 113.113 35.0711 112.061C46.9579 106.157 59.5684 107.76 72.1371 109.656C78.002 109.544 83.6268 109.747 89.4699 110.148C98.348 111.425 106.408 114.027 111.984 121.507C116.436 127.48 118.058 135.158 116.935 142.486C115.852 149.559 111.675 156.058 105.898 160.206C91.8209 170.319 64.0998 170.189 47.3609 167.305C40.1145 166.057 34.322 163.942 28.3489 159.601C27.6739 161.764 26.5922 163.522 24.8082 164.952C21.6246 167.503 16.3721 167.268 12.5109 166.859C10.2749 166.622 7.49609 165.929 6.06762 164.038C2.50722 159.325 9.87661 155.866 11.4608 152.502C12.8939 149.46 13.0862 145.07 13.6072 141.759C14.9368 142.262 16.9471 143.163 18.3304 142.762C17.7183 139.084 17.4341 135.46 17.3763 131.734C18.5151 132.347 19.7666 132.719 21.0537 132.829C22.8683 132.98 24.371 132.592 25.7756 131.419C25.8249 131.216 25.8755 130.987 25.9533 130.794C26.3804 129.749 26.9464 128.767 26.9894 127.598C27.0271 126.576 26.6215 126.087 25.9715 125.375C26.0459 125.149 26.1858 124.695 26.2953 124.495C26.9648 123.281 27.731 124.75 28.6208 124.419C29.5173 124.088 29.945 123.218 30.8493 122.843C31.115 121.853 31.1767 120.809 31.2852 119.79C30.7512 118.415 29.9029 117.177 29.1343 115.924Z" fill="#4A54E9"/>
<path d="M13.6072 141.759C14.9368 142.262 16.9471 143.163 18.3304 142.762C20.2625 150.413 22.9427 153.961 28.3489 159.601C27.6739 161.764 26.5922 163.522 24.8082 164.952C21.6246 167.503 16.3721 167.268 12.5109 166.859C10.2749 166.622 7.49609 165.929 6.06762 164.038C2.50722 159.325 9.87661 155.866 11.4608 152.502C12.8939 149.46 13.0862 145.07 13.6072 141.759Z" fill="#FD99BE"/>
<path d="M25.9715 125.375C26.0459 125.149 26.1858 124.695 26.2953 124.495C26.9648 123.281 27.731 124.75 28.6208 124.419C29.5173 124.088 29.945 123.218 30.8493 122.843C30.698 124.141 30.0521 124.487 29.0874 125.274L28.7731 127.793C27.7931 129.017 26.7938 130.226 25.7756 131.419C25.8249 131.216 25.8755 130.987 25.9533 130.794C26.3804 129.749 26.9464 128.767 26.9894 127.598C27.0271 126.576 26.6215 126.087 25.9715 125.375Z" fill="#EB357F"/>
<path d="M77.1898 117.484C78.7866 117.372 80.521 117.195 82.0359 117.815C83.8985 118.579 85.2175 120.019 85.9113 121.908C86.9685 124.784 86.5958 128.733 85.2621 131.466C84.0916 133.865 82.4153 135.087 79.9374 135.892C77.9856 136.171 76.3563 136.325 74.5212 135.387C72.6822 134.449 71.3739 132.724 70.8119 130.747C69.9628 127.759 70.3713 124.041 71.979 121.371C73.2204 119.308 74.8837 118.078 77.1898 117.484Z" fill="#FFFEF8"/>
<path d="M78.7117 121.338C79.1746 121.437 79.6715 121.549 80.101 121.752C80.9443 122.15 81.5575 123.135 81.8792 123.977C82.584 125.824 82.3785 128.051 81.5185 129.809C80.8402 131.198 80.0013 131.771 78.5669 132.224C77.9903 132.112 77.3473 131.943 76.8237 131.669C75.8981 131.19 75.261 130.099 74.9572 129.135C74.4091 127.402 74.6634 125.368 75.5475 123.786C76.3311 122.387 77.1932 121.762 78.7117 121.338Z" fill="#4A54E9"/>
<path d="M59.2331 117.477C60.6299 117.398 62.2857 117.221 63.6202 117.685C65.5682 118.36 67.02 119.644 67.8576 121.548C69.0289 124.213 68.8341 127.767 67.717 130.416C66.5685 133.139 64.6719 134.681 62.0278 135.775C60.1779 135.983 58.4123 136.124 56.6842 135.293C54.9495 134.459 53.7517 132.961 53.1181 131.156C52.1004 128.257 52.3531 124.578 53.7997 121.866C54.9918 119.634 56.8383 118.198 59.2331 117.477Z" fill="#FFFEF8"/>
<path d="M59.9882 121.569C60.4901 121.535 61.0212 121.496 61.5215 121.554C62.3322 121.648 63.1428 122.283 63.5995 122.942C64.407 124.109 64.4747 125.73 64.2544 127.084C63.9119 129.189 63.0709 130.867 61.3111 132.084C60.8235 132.076 60.31 132.078 59.8299 131.987C58.9835 131.826 58.191 131.148 57.7167 130.453C56.7991 129.109 56.6865 127.358 57.0047 125.8C57.4178 123.773 58.2844 122.671 59.9882 121.569Z" fill="#4A54E9"/>
<path d="M91.8925 117.732C93.3002 117.643 94.8228 117.573 96.2241 117.727C98.6544 117.993 100.91 118.91 102.419 120.915C103.788 122.734 104.221 125.045 103.879 127.275C103.442 130.114 101.892 132.508 99.6057 134.191C98.0337 134.973 96.6084 135.343 94.875 135.535C93.0337 135.744 90.9988 135.898 89.4715 134.678C88.5679 133.053 89.3404 121.39 89.8353 118.93C90.3519 118.204 91.0933 118.029 91.8925 117.732Z" fill="#FFFEF8"/>
<path d="M93.8527 121.559C95.2993 121.491 96.5633 121.395 97.8109 122.265C98.8151 122.966 99.4334 124.07 99.5772 125.284C99.7993 127.157 99.052 128.942 97.958 130.408C97.2382 130.992 95.9955 131.839 95.0152 131.766C94.599 131.737 94.2668 131.594 94.0081 131.273C92.4932 129.39 93.6718 123.919 93.8527 121.559Z" fill="#4A54E9"/>
<path d="M62.928 139.889C63.8541 139.826 64.7854 139.756 65.7141 139.756C68.3175 139.748 71.3994 140.313 73.2552 142.293C73.8526 142.931 74.2784 143.697 74.1847 144.601C74.0207 146.185 72.825 147.383 71.6625 148.324C72.8722 149.27 74.0716 150.119 74.3549 151.737C74.6238 153.268 73.8751 154.516 73.0762 155.751C72.9968 155.824 72.921 155.9 72.8382 155.97C70.6679 157.765 66.9352 158.244 64.1795 157.991C63.3216 157.913 62.3773 157.713 61.8407 156.975C61.1282 155.996 61.3454 143.893 61.6329 141.892C61.781 140.858 62.1153 140.503 62.928 139.889Z" fill="#FFFEF8"/>
<path d="M65.6577 150.486C66.5179 150.46 67.5789 150.359 68.4163 150.575C69.0159 150.731 69.5417 151.054 69.8066 151.64C70.1162 152.323 69.886 153.125 69.7205 153.813C69.0276 154.113 68.1591 154.36 67.4092 154.441C66.6689 154.519 66.4097 154.277 65.8868 153.803C65.4389 152.755 65.6125 151.601 65.6577 150.486Z" fill="#4A54E9"/>
<path d="M65.6549 143.45C66.3044 143.403 66.9897 143.346 67.6384 143.408C68.3733 143.478 68.798 143.809 69.2444 144.377C69.5254 145.224 69.4273 145.737 69.2418 146.597C68.6543 146.779 68.0502 146.99 67.4469 147.11C66.7901 147.238 66.4933 147.149 65.9411 146.805C65.4058 145.839 65.6186 144.528 65.6549 143.45Z" fill="#4A54E9"/>
<path d="M43.5607 117.208C44.7434 117.161 46.0004 117.214 47.1325 117.589C48.289 117.974 49.2128 118.508 49.7966 119.597C49.7857 120.162 49.7979 120.342 49.4292 120.806C48.1598 122.406 45.5177 121.366 43.6816 121.679C42.3157 121.911 41.0302 122.635 40.2465 123.802C39.2011 125.36 39.3921 127.527 39.7813 129.267C40.0029 130.255 40.3163 131.279 41.2855 131.774C42.3128 132.297 43.739 132.198 44.7595 131.745C45.3815 131.07 45.8737 130.45 45.7863 129.463C45.7458 129.004 45.7502 129.142 45.3651 128.809C44.8521 128.793 44.1531 128.843 43.6653 128.705C43.1146 128.548 42.762 127.9 42.654 127.368C42.5155 126.686 42.6613 126.48 42.982 125.915C44.6199 124.753 46.1867 124.977 48.0905 125.078C48.2711 125.094 48.4997 125.102 48.6702 125.159C49.294 125.37 49.4881 125.657 49.7289 126.258C50.3634 127.845 49.7191 131.258 49.0255 132.8C48.3612 134.277 46.9127 135.176 45.4259 135.658C43.4156 136.312 40.657 136.181 38.7934 135.134C37.0263 134.144 35.9643 132.417 35.5257 130.466C34.8643 127.519 35.5099 124.245 37.1156 121.707C38.6813 119.232 40.7346 117.815 43.5607 117.208Z" fill="#FFFEF8"/>
<path d="M81.4412 139.933C82.9024 139.886 86.3476 139.396 87.5345 140.118C87.9901 140.803 88.1113 141.397 87.9341 142.197C87.2605 145.237 83.2109 143.095 81.2295 144.367C80.9077 144.971 80.608 145.409 80.6994 146.123C81.7212 147.446 84.6409 146.787 86.2259 147.48C86.62 147.975 86.8629 148.199 86.7776 148.887C86.7244 149.317 86.5754 149.783 86.2443 150.069C85.1604 151.002 82.6081 150.606 81.2463 150.58C81.2105 151.539 80.9344 152.992 81.4817 153.81C82.2921 154.274 83.1512 154.047 84.0358 153.946C84.8493 153.883 86.182 153.649 86.9447 153.951C87.7122 154.256 88.2351 154.704 88.548 155.483C88.4559 156.126 88.2722 156.426 87.7843 156.866C85.5276 158.906 79.6762 158.122 76.8559 157.814C76.7583 154.894 76.032 142.152 77.4262 140.417C78.6873 139.912 80.0986 139.985 81.4412 139.933Z" fill="#FFFEF8"/>
<path d="M95.6538 139.586C96.495 139.534 97.3947 139.472 98.224 139.657C99.5383 139.949 101.123 140.431 101.875 141.616C101.904 142.403 101.834 142.496 101.428 143.182C99.2837 144.659 97.0345 143.228 94.7668 143.786C94.2357 143.916 94.4435 143.796 94.1186 144.307C94.7892 146.62 98.5828 147.238 100.349 148.585C101.304 149.311 101.974 150.231 102.095 151.45C102.256 153.076 101.499 155.441 100.412 156.653C98.7873 158.461 96.2729 158.534 94.0239 158.609C92.7896 158.39 91.2975 158.221 90.3162 157.364C89.6643 156.798 89.0761 155.756 89.136 154.865C89.1866 154.118 89.4513 153.917 89.9596 153.451C91.748 152.977 92.664 153.915 94.1988 154.701C94.9329 155.079 95.6299 154.946 96.3798 154.686C96.9512 154.485 97.3773 154.1 97.5952 153.524C98.8511 150.218 91.3863 149.952 90.0772 146.964C89.5488 145.758 89.7173 144.187 90.2707 143.017C91.2251 141.001 93.6918 140.217 95.6538 139.586Z" fill="#FFFEF8"/>
<path d="M36.9849 139.888C37.7311 139.836 38.8189 139.664 39.5234 139.987C39.6236 140.034 40.0611 140.339 40.1454 140.467C40.9111 141.626 42.4138 151.083 43.0054 153.378C43.8278 150.499 45.4381 143.08 47.1206 140.99C47.5669 140.436 48.322 140.23 49.0037 140.157C49.8317 140.071 50.3453 140.282 50.9815 140.785C51.4509 142.267 50.1452 144.505 49.5733 145.878C48.8249 147.701 46.0879 156.324 45.6452 156.879C45.0004 157.689 43.8887 158.098 42.8739 158.153C41.9893 158.202 41.1613 157.89 40.5172 157.28C39.8086 156.611 39.3716 155.699 39.0441 154.792C38.2862 152.698 35.778 143.067 35.6963 140.949C36.0556 140.258 36.3079 140.232 36.9849 139.888Z" fill="#FFFEF8"/>
<path d="M56.3466 139.902C57.089 140.027 57.5976 140.04 58.0647 140.649C58.374 143.575 58.1687 154.584 57.5997 157.288C56.9917 157.955 56.2132 158.007 55.3728 158.182C54.8182 158.07 54.3976 157.916 53.8908 157.666C52.9977 156.186 53.7217 142.814 54.1534 140.785C54.8066 140.089 55.4555 140.05 56.3466 139.902Z" fill="#FFFEF8"/>
<path d="M83.6406 91.9543C88.6123 90.9878 91.2025 87.7887 93.9092 83.7534C98.5216 76.8787 95.3574 73.8753 98.1892 67.9864C99.2865 65.7044 102.938 65.1312 103.467 63.4926C104.407 60.5811 101.419 56.9334 106.243 56.0143C107.207 55.8307 108.397 55.7372 109.206 56.4101C110.462 57.4552 110.377 59.351 110.346 60.8205C110.327 61.749 110.31 62.6504 110.372 63.5786C111.323 61.742 112.093 59.705 114.187 58.9378C114.9 58.6765 115.696 58.6802 116.366 59.0642C117.313 59.6065 117.801 60.7181 117.944 61.7605C118.313 64.4419 116.798 66.6169 115.215 68.5971L115.016 68.8435C116.555 71.6323 117.686 74.5281 116.755 77.7548C115.695 81.4296 112.866 83.5424 110.708 86.4836C107.842 90.3913 106.543 95.2081 103.247 98.9335C100.603 101.922 97.2249 104.365 93.9936 106.673C92.4725 107.76 90.7666 108.791 89.4699 110.148C83.6268 109.747 78.002 109.544 72.1371 109.656C71.9575 105.787 73.7119 101.247 75.0529 97.6543C75.8282 97.0213 76.9723 96.6044 77.86 96.1069C80.0319 94.8903 81.8122 93.6424 83.6406 91.9543Z" fill="#FD99BE"/>
<path d="M104.08 67.9945C105.101 67.7889 106.261 67.9242 107.304 67.9447C107.377 68.0005 107.451 68.0539 107.522 68.1115C109.112 69.4023 110.053 71.0615 110.237 73.1435C110.337 74.2687 110.144 75.5191 109.336 76.3637C108.691 77.0382 107.803 77.2976 106.89 77.3135C105.457 77.3385 102.7 76.686 101.722 75.7492C101.997 75.3936 102.312 74.9207 102.724 74.7079C103.962 74.0696 105.367 75.1151 106.591 75.2883C107.165 75.3696 107.241 75.2524 107.693 74.9325C108.011 74.1366 108.162 73.2363 108.042 72.3763C107.652 69.5766 103.056 71.0029 101.499 69.6928L101.641 69.0871C102.539 68.1558 102.986 68.6606 104.08 67.9945Z" fill="#EB357F"/>
<path d="M10.7394 127.42C13.2971 127.806 15.221 128.757 16.7896 130.88C16.9935 131.159 17.1892 131.445 17.3763 131.734C17.4341 135.46 17.7183 139.084 18.3304 142.762C16.9471 143.163 14.9368 142.262 13.6072 141.759C11.3876 139.922 7.76181 139.67 6.15923 137.89C5.81411 137.507 5.58914 136.981 5.64208 136.463C5.8245 134.683 7.71537 133.865 8.54235 132.433C9.48117 130.81 9.20273 128.765 10.7394 127.42Z" fill="var(--fill-0, #FEC619)"/>
</g>
</g>
</svg>
