<svg preserveAspectRatio="none" width="100%" height="100%" overflow="visible" style="display: block;" viewBox="0 0 136 159" fill="none" xmlns="http://www.w3.org/2000/svg">
<g id="Frame 136">
<g id="Vector">
<path d="M82.3775 56.0761L85.1418 55.9929C87.1331 56.7078 88.7497 58.0414 90.5602 59.089C91.2598 57.9192 92.279 56.0761 93.783 55.8551C94.5952 55.7355 95.2895 56.1255 95.8241 56.7026C96.9062 57.8672 97.797 61.9252 99.5682 61.7744C101.085 61.6444 102.526 59.9755 104.038 60.9373C104.753 61.3923 105.574 62.3723 105.707 63.2146C106.043 65.3671 104.056 67.6027 102.736 69.1261C101.596 70.4207 100.399 71.6633 99.1411 72.8435C102.964 78.0999 106.252 83.0886 108.676 89.1456C110.434 93.5338 111.17 98.4678 113.976 102.372C119.02 109.384 128.958 109.079 134.288 118.269C135.629 120.577 136.284 123.109 135.883 125.771C135.354 129.268 133.247 132.624 130.339 134.649C127.981 136.289 125.471 136.887 122.693 137.457C122.505 142.053 121.019 146.165 117.537 149.334C114.977 151.664 112.003 152.732 108.621 153.145C107.811 153.228 106.436 153.104 105.87 153.639C105.969 155.017 106.485 156.959 105.579 158.129C105.07 158.784 104.3 158.76 103.54 158.802C97.9359 159.106 91.9803 159.033 86.3706 158.763C80.3574 159.15 74.1242 158.753 68.0848 158.742C58.2986 158.724 48.4757 158.919 38.6974 158.711C37.3166 158.68 34.7593 158.61 33.782 157.593C32.789 154.604 34.5078 149.605 35.1838 146.558C31.4658 145.081 26.0867 143.467 24.2998 139.552C24.2919 139.362 24.2841 139.17 24.2893 138.98C24.4072 134.815 28.5077 126.107 31.5025 123.18L31.1698 123.016C30.9156 122.636 30.685 122.278 30.4702 121.877C24.8107 111.255 24.5199 97.454 28.285 86.1821C31.5104 76.5246 37.5655 68.354 46.9115 63.7605C53.585 60.4824 62.3676 59.3022 69.6804 60.7372C72.9791 61.3845 76.2071 62.6037 79.3906 63.6669C79.3565 63.3368 79.3251 63.147 79.3199 62.8325C79.2779 60.1497 80.5382 57.927 82.3775 56.0761Z" fill="#ED521F"/>
<path d="M36.6458 82.7012C49.0888 83.4785 55.7151 81.4664 66.8716 76.0774C69.8848 79.5453 72.6202 83.2523 75.7774 86.598C80.415 91.5138 87.154 95.7954 93.238 98.7304C95.9393 97.6437 98.4363 96.7287 101.321 97.9011C103.048 98.5926 104.429 99.9366 105.16 101.637C106.126 103.909 105.82 106.659 104.806 108.864C103.755 111.182 101.782 112.963 99.3586 113.782C97.2153 114.507 94.8991 114.162 92.6929 113.985C89.8737 118.823 87.0178 122.691 82.2911 125.873C76.4089 129.759 70.2411 131.829 63.1117 131.543C52.6181 131.124 43.8354 127.011 36.782 119.402C31.8274 112.802 29.7103 106.584 30.9261 98.2572C31.7042 92.941 33.8449 87.2921 36.6458 82.7012Z" fill="#FEB295"/>
<path d="M68.1108 93.8406L68.0348 93.3856C69.0174 92.1768 70.7886 91.0616 72.358 90.8588C74.2786 90.6092 76.2306 91.3293 77.6848 92.5615C79.3538 93.9757 80.2761 95.7539 80.3887 97.9349C80.5328 100.685 79.5084 103.703 77.5983 105.721C76.186 107.213 74.2498 108.18 72.1615 108.149C70.2331 108.12 67.9877 107.117 66.6933 105.695C66.3684 105.333 66.1431 104.915 65.9073 104.494L66.02 104.32C65.3151 102.479 65.0112 100.75 65.2627 98.7694C65.5274 96.6871 66.4339 95.0936 68.1108 93.8406Z" fill="#FFFEF8"/>
<path d="M68.1108 93.8406C69.5519 93.5078 70.9275 93.2478 72.2821 94.0251C73.4795 94.7114 74.1633 95.902 74.4358 97.22C74.8498 99.2425 74.352 101.769 73.0969 103.43C72.2794 104.512 71.1502 105.242 69.7877 105.419C68.3257 105.609 67.199 105.123 66.02 104.32C65.3151 102.479 65.0112 100.75 65.2627 98.7694C65.5274 96.6871 66.4339 95.0936 68.1108 93.8406Z" fill="black"/>
<path d="M44.8205 89.5226L44.721 89.0833C45.3472 87.9914 46.3454 87.4169 47.5612 87.0972C49.6232 86.5564 52.0809 86.8398 53.8835 88.007C55.3141 88.9351 56.2233 90.721 56.4748 92.364C56.8757 94.9818 55.8722 97.7607 54.2294 99.7936C52.7962 101.569 50.8127 102.791 48.5097 103.007C47.1 103.137 45.7192 102.861 44.6581 101.884C43.969 101.252 43.369 100.506 43.1856 99.5805C43.1017 99.3257 43.0231 99.0683 42.9367 98.8136C42.617 97.8907 42.3785 97.0848 42.2842 96.1022C42.017 93.3674 43.0991 91.5217 44.8205 89.5226Z" fill="#FFFEF8"/>
<path d="M44.8205 89.5226C46.0572 88.9039 47.4668 88.4568 48.8424 88.9299C49.8197 89.2678 50.556 90.0945 50.9857 91.007C51.908 92.9671 51.6879 95.5069 50.873 97.4644C50.3464 98.733 49.4922 99.9028 48.1821 100.451C47.0791 100.914 45.7926 100.854 44.7026 100.389C44.176 100.165 43.6703 99.8794 43.1856 99.5805C43.1017 99.3257 43.0231 99.0683 42.9367 98.8136C42.617 97.8907 42.3785 97.0848 42.2842 96.1022C42.017 93.3674 43.0991 91.5217 44.8205 89.5226Z" fill="black"/>
<path d="M51.1168 110.519C52.3719 110.642 53.6033 111.167 54.8138 111.513C59.4357 112.836 61.089 112.342 65.4908 111.242C66.0646 111.51 66.0751 111.528 66.3659 112.087C66.3607 112.87 66.1668 113.137 65.7424 113.761C63.0751 115.3 60.1484 115.459 57.1457 115.084C55.309 114.856 52.0338 114.422 51.0382 112.646C50.6242 111.908 50.936 111.268 51.1168 110.519Z" fill="black"/>
<path d="M57.6592 102.279C57.7587 102.315 57.8636 102.339 57.9579 102.388C58.3273 102.586 58.4531 102.965 58.5762 103.334C58.9273 104.374 58.5972 105.417 58.0679 106.332C57.6304 107.093 57.0356 107.317 56.2338 107.556C55.6915 107.091 55.0941 106.649 54.8661 105.944C54.6617 105.305 54.7273 104.553 55.0652 103.971C55.6705 102.934 56.543 102.56 57.6592 102.279Z" fill="#FB7A48"/>
<path d="M36.782 119.402C43.8354 127.011 52.6181 131.124 63.1117 131.543C70.2411 131.829 76.4089 129.759 82.2911 125.873C83.402 127.186 85.7156 127.732 87.2693 128.509C93.3349 131.54 99.4084 136.765 101.274 143.454C102.872 146.597 104.408 149.651 105.503 153.013C106.519 153.026 107.62 152.953 108.621 153.145C107.811 153.228 106.436 153.104 105.87 153.639C105.969 155.017 106.485 156.959 105.579 158.129C105.07 158.784 104.3 158.76 103.54 158.802C97.9359 159.106 91.9803 159.033 86.3706 158.763C80.3574 159.15 74.1242 158.753 68.0848 158.742C58.2986 158.724 48.4757 158.919 38.6974 158.711C37.3166 158.68 34.7593 158.61 33.782 157.593C32.789 154.604 34.5078 149.605 35.1838 146.558C31.4658 145.081 26.0867 143.467 24.2998 139.552C24.2919 139.362 24.2841 139.17 24.2893 138.98C24.4072 134.815 28.5077 126.107 31.5025 123.18C32.9541 122.826 33.8816 122.241 34.893 121.183C35.4956 120.549 36.1165 119.974 36.782 119.402Z" fill="#E1435C"/>
<path d="M83.0666 149.763C89.6746 149.054 95.9053 147.572 101.274 143.454C102.872 146.597 104.408 149.651 105.503 153.013C106.519 153.026 107.62 152.953 108.621 153.145C107.811 153.228 106.436 153.104 105.87 153.639C105.969 155.017 106.485 156.959 105.579 158.129C105.07 158.784 104.3 158.76 103.54 158.802C97.9359 159.106 91.9803 159.033 86.3706 158.763C85.8833 155.849 83.9836 152.631 82.6421 150.002L83.0666 149.763Z" fill="#FEB295"/>
<path d="M82.6421 150.002L82.2465 150.08C81.7041 149.865 81.4212 149.573 81.112 149.082C80.0011 147.296 78.8744 144.049 79.3853 142.027L79.7338 141.964C81.3819 143.67 82.5242 147.45 83.0666 149.763L82.6421 150.002Z" fill="#AD2043"/>
<path d="M38.0003 136.51C38.4352 136.807 38.5558 136.937 38.844 137.35C39.03 140.127 37.3636 143.961 36.1374 146.41C35.6867 146.288 35.5977 146.236 35.257 145.952C34.7933 143.28 36.5619 138.728 38.0003 136.51Z" fill="#AD2043"/>
<path d="M82.3775 56.0761L85.1418 55.9929C87.1331 56.7078 88.7497 58.0414 90.5602 59.089C91.2598 57.9192 92.279 56.0761 93.783 55.8551C94.5952 55.7355 95.2895 56.1255 95.8241 56.7026C96.9062 57.8672 97.797 61.9252 99.5682 61.7744C101.085 61.6444 102.526 59.9755 104.038 60.9373C104.753 61.3923 105.574 62.3723 105.707 63.2146C106.043 65.3671 104.056 67.6027 102.736 69.1261C101.596 70.4207 100.399 71.6633 99.1411 72.8435C96.5996 74.6165 93.2903 75.0116 90.2667 74.6398C86.8265 74.2135 82.1024 73.0281 79.9618 70.1269C78.3451 67.9329 78.9399 66.1079 79.3906 63.6669C79.3565 63.3368 79.3251 63.147 79.3199 62.8325C79.2779 60.1497 80.5382 57.927 82.3775 56.0761Z" fill="#FEC619"/>
<path d="M10.1588 86.4082C10.2453 82.9117 9.50905 78.5574 12.2471 75.846C13.0253 75.0765 14.1676 74.2576 15.3283 74.4032C16.5048 74.554 17.393 75.599 17.9721 76.5401C21.6298 82.4906 21.0062 98.3741 21.1738 105.676C21.221 107.761 20.9668 110.4 21.5537 112.396C22.4891 115.591 27.6351 121.57 30.6718 123.05L31.1698 123.016L31.5025 123.18C28.5077 126.107 24.4072 134.815 24.2893 138.98C24.2841 139.17 24.2919 139.362 24.2998 139.552L24.0429 138.322L23.6315 138.065C23.1389 138.083 22.6437 138.099 22.1485 138.081C18.7214 137.961 14.4899 133.968 12.2182 131.607C7.0985 126.286 4.96048 119.379 4.26877 112.191C4.03034 109.695 4.04084 106.838 3.40415 104.423C3.12641 103.365 2.32988 102.404 1.75345 101.486C0.466972 99.4322 -0.106838 96.7936 0.0163083 94.3812C0.131594 92.0987 0.97266 89.9748 2.70719 88.4307C4.87927 86.4914 7.25834 86.4186 10.0016 86.5017L10.1588 86.4082Z" fill="#FEB295"/>
<path d="M10.1588 86.4082C10.2872 86.4472 10.4235 86.468 10.5493 86.5226C11.2515 86.8189 12.3546 90.5571 12.745 91.4592C14.3013 91.9479 15.9206 92.5146 17.3328 93.3439C18.0403 93.7599 18.4307 94.0874 18.6324 94.8829L18.242 95.4626C18.035 95.5692 17.8516 95.746 17.621 95.7823C17.3512 95.8239 11.4664 93.0164 10.3633 92.6784C8.841 93.5441 7.50999 94.311 6.90736 96.0397C7.32396 99.089 12.1162 98.1506 13.8717 100.082L13.8323 100.566C12.1424 102.099 5.79381 99.115 3.07411 100.051C2.95883 100.09 2.84877 100.139 2.73348 100.183C2.43741 99.8377 2.33259 99.9001 2.39548 99.531C2.58937 98.3793 3.96493 97.2147 4.78503 96.4556C4.37891 95.4652 3.70817 94.4643 3.5169 93.4089C3.39113 92.7252 3.60075 92.3275 3.98329 91.792L4.62259 91.7114C5.3929 92.0649 5.50036 92.0831 5.92744 92.798L6.29161 92.837C7.65931 91.285 9.25226 88.4151 10.0016 86.5017L10.1588 86.4082Z" fill="#FB7A48"/>
<path d="M96.8039 0.0129335C98.8581 -0.0156621 100.996 0.17411 102.804 1.21655C105.374 2.69833 106.776 5.45131 107.434 8.23809C108.442 12.4988 108.026 17.7916 105.584 21.5325C103.737 24.3634 101.31 25.3123 98.1297 25.9232C95.313 25.9882 92.5174 25.8114 90.1226 24.1736C87.8352 22.6035 86.5854 19.9727 86.2133 17.2925C85.6107 12.9252 86.4622 6.73552 89.3522 3.24426C91.2885 0.907212 93.9296 0.343083 96.8039 0.0129335Z" fill="var(--fill-0, #21DABB)"/>
<path d="M96.7724 5.67229C97.2991 5.74248 97.8493 5.80748 98.3576 5.97385C99.5602 6.37159 100.438 7.45043 100.986 8.53966C102.165 10.8845 102.125 14.121 101.187 16.5334C100.488 18.3376 99.5236 19.3982 97.7629 20.1963C96.8615 20.2327 95.9497 20.3366 95.1008 19.9805C93.7724 19.4216 92.858 17.8878 92.4754 16.5724C91.6894 13.8818 92.0615 10.362 93.5287 7.95475C94.3646 6.58476 95.2266 6.03884 96.7724 5.67229Z" fill="#FFFEF8"/>
<path d="M72.4026 0C74.8262 0.0857869 77.3022 0.597906 79.2306 2.14207C81.5206 3.97739 82.3224 6.65241 82.6316 9.44699C83.1058 13.7181 82.7993 18.9173 79.9066 22.3696C77.8813 24.7872 75.3083 25.6737 72.2532 25.9233C69.6933 25.8479 67.3379 25.5411 65.2103 23.984C62.8863 22.2864 61.7963 19.4606 61.3954 16.7077C60.8085 12.6653 61.7806 7.11254 64.3771 3.89163C66.4366 1.33622 69.2532 0.39254 72.4026 0Z" fill="var(--fill-0, #21DABB)"/>
<path d="M71.276 5.85684C71.9075 5.83344 72.6228 5.81265 73.2385 5.95823C74.5197 6.26498 75.6045 7.31003 76.2045 8.43826C77.3652 10.6167 77.2787 13.5985 76.5503 15.8965C75.9582 17.7578 75.0647 19.0342 73.3302 19.9649C72.649 19.9961 71.9363 20.0533 71.2577 19.9727C70.1022 19.8375 69.1406 19.0706 68.5039 18.1374C67.2201 16.2449 67.2751 13.4607 67.71 11.3134C68.2157 8.81519 69.1668 7.27882 71.276 5.85684Z" fill="#FFFEF8"/>
<path d="M59.6085 29.6536C61.6732 29.5548 63.675 29.7706 65.7108 30.0799C66.7851 32.4898 67.2724 35.3415 68.0611 37.8709L71.1031 47.8534C71.5511 49.3144 72.2271 50.7572 72.5651 52.2416C72.7249 52.9357 72.6673 53.4816 72.5022 54.1653C72.2297 54.563 72.0175 54.888 71.5537 55.0907C70.5293 55.5405 68.1712 55.5249 67.1991 54.9919C65.6847 54.1627 66.2244 52.5873 65.5536 51.3187C65.1632 50.5804 64.8829 50.6168 64.1257 50.44C61.8278 50.4452 59.5247 50.5102 57.2269 50.5492C56.9806 51.8074 56.7317 53.8663 55.5578 54.6202C54.6853 55.1817 53.1893 55.1973 52.2224 54.9036C51.5569 54.7034 50.8364 54.2095 50.6084 53.5232C49.9901 51.6592 56.3622 32.8797 57.7692 30.5583C58.1754 29.8876 58.8985 29.807 59.6085 29.6536Z" fill="var(--fill-0, #21DABB)"/>
<path d="M61.8986 36.9975C62.7606 37.9178 63.5204 43.4367 63.7405 44.9575C62.8392 45.2773 61.7439 45.1369 60.7902 45.1317C60.1483 45.0979 59.7894 45.2045 59.2784 44.7833C58.9824 42.4723 60.971 39.1006 61.8986 36.9975Z" fill="#FFFEF8"/>
<path d="M36.1663 30.1996C38.6921 30.2048 41.2153 29.8955 43.7359 29.9059C45.1167 29.9137 46.4949 30.0618 47.4774 31.1303C48.5805 32.3261 48.2032 34.138 48.1115 35.6172C44.8547 35.9395 41.4773 35.69 38.1943 35.8538C38.1943 37.2835 38.3253 38.5703 38.5821 39.9741C40.5236 39.9507 43.6206 39.319 45.3289 40.2861C45.8529 40.5825 46.0783 40.9542 46.1647 41.5339C46.3141 42.5633 46.2643 43.8866 45.4861 44.6742C44.0765 46.0962 41.3961 45.4593 39.5987 45.6621C38.8389 45.7478 38.5664 45.9428 38.0869 46.5043C38.0031 47.1594 38.0424 47.9965 38.438 48.571C38.9306 49.2833 39.5358 49.2963 40.3166 49.5043C42.1822 49.4913 44.3542 48.9583 46.1569 49.5511C46.8434 49.7772 47.404 50.2192 47.687 50.8951C48.0172 51.6879 48.0093 52.811 47.5534 53.5492C47.1368 54.2225 46.432 54.5423 45.6957 54.7347C43.8092 55.2338 33.1113 55.317 31.6309 54.3552C31.2274 54.0926 31.1776 53.3257 31.1095 52.8708C30.8527 51.129 31.623 32.3755 32.1366 31.3123C32.2388 31.1043 32.4222 30.9483 32.5663 30.7637C33.7113 30.2308 34.9244 30.2646 36.1663 30.1996Z" fill="var(--fill-0, #21DABB)"/>
<path d="M82.3775 56.0761C79.8832 55.9773 76.891 55.8187 75.1276 53.8066C74.4752 53.0631 74.1451 52.122 74.2472 51.1342C74.3337 50.2841 74.8132 49.5432 75.5206 49.0649C76.3538 48.5008 77.3232 48.259 78.311 48.467C80.6377 48.9583 81.9504 51.4046 84.636 49.993C85.5085 49.5354 86.1872 49.0103 86.6457 48.1394C86.5409 47.2972 86.3051 46.9124 85.6107 46.4029C82.0002 43.7487 76.6185 44.0659 75.4813 38.6119C75.1355 36.9559 75.4027 35.2246 76.4219 33.8442C77.863 31.8945 80.8316 30.1502 83.2605 29.859C85.8072 29.5549 89.6693 29.768 91.7209 31.4266C92.3942 31.9699 92.6851 32.7108 92.7244 33.5557C92.7532 34.1666 92.5829 34.7333 92.1663 35.196C91.5008 35.9369 90.416 36.2229 89.4466 36.1787C87.2064 36.0799 85.0002 33.3841 82.7784 35.3364C82.1862 35.8563 81.8692 36.3815 81.8011 37.1691C82.1024 38.0556 82.5688 38.4481 83.3836 38.8797C86.9601 40.767 91.7313 40.6162 93.2196 45.2539C93.9008 47.37 93.2484 49.928 92.1689 51.8075C90.9689 53.895 88.9462 55.083 86.6431 55.6549C86.1452 55.7771 85.6448 55.8889 85.1418 55.9929L82.3775 56.0761Z" fill="var(--fill-0, #21DABB)"/>
<path d="M112.339 29.6148C113.156 29.5524 113.955 29.5316 114.767 29.6667C115.559 29.7967 116.169 30.0541 116.638 30.73C116.866 32.4639 109.868 42.683 108.482 44.8978C108.435 47.3519 109.126 51.2149 108.036 53.4271C107.567 54.3838 106.666 54.7581 105.702 55.0623C104.918 55.3118 104.072 55.3924 103.357 54.8959C100.684 53.045 102.822 47.0815 101.905 44.3181C101.858 44.1778 101.8 44.0425 101.751 43.9048C100.16 41.222 95.0615 33.8287 94.3253 31.7464C94.4667 31.0939 94.4772 30.7794 95.0851 30.3842C96.0965 29.7239 97.8677 29.7993 99.0075 29.9657C102.702 30.5116 103.509 35.6718 105.448 38.3676L105.668 38.6692C107.557 35.7836 108.953 30.873 112.339 29.6148Z" fill="var(--fill-0, #21DABB)"/>
<path d="M40.817 0.48608C43.8354 0.421089 56.9151 -0.0494237 58.7413 0.826643C59.454 1.53374 59.7134 2.18884 59.7186 3.17149C59.7265 4.02156 59.5012 5.12638 58.8016 5.69049C57.4234 6.80572 54.5413 6.31961 52.8984 6.25462L52.3797 20.815C52.4111 22.1252 52.6862 23.7967 51.7534 24.8652C50.9726 25.7594 49.4687 26.0194 48.3394 26.0142C47.4853 26.0116 46.5682 25.9076 45.9735 25.2369C45.2451 24.4129 46.4608 8.70343 46.5866 6.37159C44.8599 6.12463 41.4223 6.82652 40.162 5.55791C39.4336 4.82742 39.4782 3.76939 39.5882 2.83093C39.7192 1.6741 39.8843 1.20617 40.817 0.48608Z" fill="var(--fill-0, #21DABB)"/>
</g>
</g>
</svg>
