<svg preserveAspectRatio="none" width="100%" height="100%" overflow="visible" style="display: block;" viewBox="0 0 185 160" fill="none" xmlns="http://www.w3.org/2000/svg">
<g id="Frame 133">
<g id="Vector">
<path d="M126.483 38.9039C129.522 39.2198 132.014 39.9097 134.298 42.0835C136.764 44.4276 137.989 47.8773 138.089 51.2605C138.24 56.3269 135.83 59.9096 132.52 63.4258C134.321 67.9021 135.254 72.0126 135.852 76.7965C137.356 75.5745 138.87 74.3692 140.394 73.1764C144.767 69.7599 149.569 67.075 155.281 67.9021C158.244 68.3302 161.164 69.7974 162.932 72.3077C164.345 74.3111 164.788 76.7757 164.328 79.1739C162.699 87.6734 145.874 97.0707 138.791 101.909C138.911 102.952 139.022 103.999 139.056 105.051C139.375 115.125 132.86 122.864 126.43 129.718C127.075 134.701 127.443 139.643 127.675 144.668C128.914 145.192 130.146 145.736 131.305 146.422C132.866 147.349 134.285 148.766 134.665 150.628C134.939 151.971 134.507 153.326 133.725 154.41C131.076 158.093 125.22 159.007 121.073 159.531C116.98 160.05 110.965 160.578 107.556 157.636C103.683 154.29 104.027 145.591 103.715 140.936C99.9893 140.973 96.2646 141.069 92.5419 141.218C91.7572 146.16 91.4464 153.272 87.6654 156.946C83.4725 161.015 75.9073 159.905 70.6463 159.735C68.2077 159.751 65.6014 159.88 63.189 159.514C60.8521 159.161 57.9941 158.226 56.5972 156.16C55.9556 155.208 55.7358 154.161 56.0171 153.039C56.8428 149.747 60.6475 147.536 63.2956 145.969C63.5051 141.106 64.1402 136.223 64.8544 131.414C57.5078 123.197 54.4243 114.951 53.0504 104.086C48.4306 101.185 42.9273 99.9842 38.2448 97.0458C34.2224 94.5229 30.938 91.3558 29.847 86.5387C29.0381 82.9685 29.7756 79.2611 31.6993 76.1772C33.0388 74.0326 35.0871 72.3493 37.5962 71.8755C43.9113 70.6909 50.3313 77.1165 55.2004 80.4665C55.1512 76.3642 55.7813 72.9686 56.8949 69.0658C54.6895 67.5072 52.8187 66.41 51.444 63.9911C49.6917 60.9071 49.3387 57.4117 50.2928 53.9953C51.6868 49.0036 55.8273 43.908 60.3084 41.4434C62.893 40.0178 65.854 39.4235 68.7149 40.3046C73.1739 41.6803 74.8291 45.8449 76.7884 49.6977C78.5788 48.43 80.5525 47.3162 82.5935 46.5306C92.2077 42.8149 102.952 44.2364 112.117 48.4425C116.603 43.4882 119.661 39.9762 126.483 38.9039Z" fill="#FEA4E7"/>
<path d="M95.3941 67.9312C95.7332 67.9187 95.9234 67.9021 96.2444 67.9312C97.5872 68.0475 98.6617 68.5297 99.5555 69.5355C100.208 72.4698 98.0119 74.07 96.9578 76.5762C96.5593 77.5238 96.5749 77.7358 96.9779 78.6585C97.713 78.9494 98.262 79.099 99.0611 79.0325C101.186 78.8662 102.251 77.3493 103.581 75.853L103.804 76.2603C103.501 77.8272 103.086 79.1904 101.677 80.0882C100.328 80.9444 98.9627 80.8821 97.4633 80.5787C96.1665 80.109 95.9661 80.084 94.6291 80.4872C94.3195 80.5828 94.0161 80.695 93.7049 80.7823C92.0625 81.2478 89.9207 80.4166 88.521 79.4689C87.6437 78.8746 87.3899 78.5919 87.1701 77.5736L87.6236 77.0708C89.0844 77.8106 91.227 79.1613 92.8649 79.2902C93.7058 79.3525 93.8517 79.1406 94.4614 78.6294C95.3318 75.2088 91.8489 74.4482 90.6546 71.6302C90.6616 70.986 90.562 70.533 90.9137 69.9636C91.7956 68.538 93.8907 68.2387 95.3941 67.9312Z" fill="black"/>
<path d="M107.493 63.7957C108.946 63.3136 110.544 63.6627 111.672 64.7101C112.801 65.7575 113.284 67.3368 112.937 68.8497C112.59 70.3584 111.466 71.5638 109.998 71.996C107.779 72.6527 105.452 71.3809 104.769 69.1448C104.086 66.9088 105.297 64.5272 107.493 63.7957Z" fill="black"/>
<path d="M81.5487 64.2238C83.8139 64.1531 85.7273 65.9154 85.8753 68.2055C86.0229 70.4998 84.3522 72.4989 82.0973 72.7275C80.568 72.8813 79.0773 72.1789 78.2089 70.8946C77.341 69.6062 77.2335 67.9437 77.9293 66.5555C78.625 65.1673 80.0129 64.2737 81.5487 64.2238Z" fill="black"/>
<path d="M98.1857 0.0304816C98.9213 0.0221691 99.8339 -0.0609499 100.552 0.0886752C101.403 0.267394 101.87 0.683021 102.341 1.38958C103.106 2.53671 102.667 4.2075 102.398 5.471C101.487 9.74779 96.9205 23.8084 93.3311 25.7244C92.2971 26.2772 91.8452 26.1151 90.8199 25.7785C87.2099 22.3038 85.5503 15.2839 83.3117 10.6954C82.0641 15.0512 80.632 23.8084 76.7084 26.3396C75.9061 26.8591 75.0377 27.042 74.1062 26.83C69.9911 25.8907 65.8719 16.51 63.8253 12.9107C62.6806 11.0196 61.278 8.87913 60.8963 6.66385C60.6593 5.28813 60.8442 4.52753 61.579 3.43859C62.5756 3.15181 63.0885 3.14353 64.084 3.52591C69.771 5.71625 72.4642 14.0287 74.5039 19.1825C75.8269 14.9265 76.8876 10.4585 78.5115 6.31058C79.2212 4.49845 80.4188 2.146 82.3195 1.42282C83.0743 1.13188 83.8886 1.23165 84.5987 1.60156C88.642 3.70878 90.8281 11.934 92.3106 15.9323C93.9772 10.8326 94.559 4.07867 98.1857 0.0304816Z" fill="var(--fill-0, #004AE3)"/>
<path d="M132.951 3.97888C136.386 3.94563 140.806 4.2989 144.009 5.52916C145.076 5.93647 145.909 6.71784 146.307 7.80677C146.747 9.01624 146.664 9.69375 146.191 10.8035C143.64 12.6488 139.989 10.9738 137.062 11.3936C136.192 11.5183 135.716 12.4202 135.289 13.1102C135.661 15.6081 141.409 15.3878 143.37 17.308C143.793 18.3221 143.653 18.8624 143.39 19.9098C141.607 22.0419 137.9 20.7992 135.29 21.1733C134.216 21.9214 134.314 22.5033 134.05 23.7169C136.221 23.8956 138.31 24.1242 140.364 24.9056C141.6 25.3753 142.574 25.8865 143.152 27.1375C142.833 28.401 142.452 29.0744 141.253 29.7601C138.419 31.3852 133.641 31.1857 130.62 30.2589C129.171 29.8141 127.795 29.0162 127.131 27.5739C125.816 24.7144 128.531 10.0137 129.78 6.97136C130.457 5.32133 131.34 4.61063 132.951 3.97888Z" fill="var(--fill-0, #004AE3)"/>
<path d="M48.2038 6.19835C48.5851 6.17757 48.9455 6.16925 49.3264 6.19003C51.4514 6.30225 52.5383 7.21667 53.874 8.78358C56.8177 12.2333 64.7125 23.1891 64.05 27.7361C63.9417 28.4801 63.6502 29.0037 63.0156 29.4027C62.3788 29.8017 61.2747 29.9887 60.547 29.7809C58.8775 29.303 57.8731 27.2207 57.0531 25.8159L56.3241 25.6704C54.3045 26.3686 52.1537 26.8092 50.0841 27.3412C49.8668 28.4966 49.5982 29.7768 49.1591 30.8699C48.7565 31.8674 48.0682 32.8649 47.003 33.2098C45.9206 33.5631 45.4852 33.3096 44.5435 32.8317C43.5775 31.5515 43.3463 30.1342 43.3463 28.5632C43.3463 24.5732 45.0313 12.2831 46.4175 8.69626C46.8103 7.68214 47.456 6.95894 48.2038 6.19835Z" fill="var(--fill-0, #004AE3)"/>
<path d="M51.4093 15.7162C52.6171 17.121 54.2046 18.7544 54.556 20.6247L53.8508 21.2149C52.6495 21.456 51.7713 21.8384 50.6898 21.1858C50.1851 19.6065 51.0276 17.3205 51.4093 15.7162Z" fill="white"/>
<path d="M175.88 16.0113C177.617 15.9905 179.552 16.1692 181.148 16.9007C182.792 17.6488 184.23 19.1409 184.772 20.9032C185.116 22.0254 185.109 23.2057 184.488 24.2157C182.471 27.5075 179.072 22.8234 176.544 23.4053C175.532 25.4875 180.021 33.1059 179.998 36.7053C179.988 38.1807 179.697 39.7601 178.557 40.7867C176.676 42.4742 173.658 43.0477 171.233 42.9895L170.89 42.8856C169.628 42.5157 168.419 42.1541 167.294 41.4392C165.143 40.076 162.868 37.8565 162.286 35.2921C162.46 34.3985 162.46 33.9871 163.166 33.3512C166.838 30.0387 169.041 35.155 172.348 35.2132C173.222 32.3163 170.41 28.3595 169.509 25.6039C168.934 23.8417 168.717 21.618 169.676 19.9597C170.94 17.7735 173.594 16.6763 175.88 16.0113Z" fill="var(--fill-0, #004AE3)"/>
<path d="M156.124 8.9789C156.996 8.83344 157.868 8.71289 158.752 8.70458C161.182 8.68795 163.728 9.42778 165.44 11.269C166.217 12.1044 166.853 13.3014 166.699 14.4859C166.549 15.6497 165.841 16.4684 164.958 17.1501C163.956 17.9273 160.28 16.3895 158.911 16.2232L158.359 16.7428C158.547 19.8309 161.163 22.6904 162.014 25.6995C162.58 27.6987 162.842 30.2132 161.712 32.0627C160.21 34.5191 157.081 35.7161 154.458 36.3063C152.25 35.9779 150.236 35.5083 148.457 34.0245C146.674 32.5407 145.06 30.6371 144.85 28.2307C144.993 27.84 145.067 27.3537 145.389 27.0835C149.047 24.0037 151.027 28.2057 154.445 28.5549C157.188 25.5831 149.936 18.7336 151.164 14.3488C151.876 11.8051 154.007 10.259 156.124 8.9789Z" fill="var(--fill-0, #004AE3)"/>
<path d="M11.6713 16.3604C12.5183 16.2731 13.0977 16.4061 13.8963 16.6389C14.3826 17.042 14.8159 17.441 15.0759 18.0354C15.4961 18.9954 15.6548 20.0013 15.1833 20.9697C14.0554 23.293 9.67301 24.3737 7.41561 25.2423L9.07033 30.1467C11.0977 29.4276 13.8484 28.081 15.9524 29.2074C16.929 29.7311 17.0979 30.2215 17.4514 31.1982C17.3731 31.7926 17.2767 32.3744 16.977 32.8981C15.7675 35.0137 12.9878 35.4792 10.8386 36.1317L12.3195 41.3727C12.1776 43.0061 11.7849 43.9787 10.9969 45.3877C10.0408 45.9903 9.99773 45.9072 8.93996 45.7493C7.90678 45.0884 7.23522 44.2863 6.56816 43.2722C4.33454 39.864 -0.7354 26.8134 0.0899101 22.8234C2.54575 19.0703 7.69112 17.7943 11.6713 16.3604Z" fill="var(--fill-0, #004AE3)"/>
<path d="M110.041 1.26489C110.848 1.26904 111.663 1.33139 112.469 1.36879C113.018 1.65142 113.558 1.94652 113.922 2.46605C116.403 6.01133 113.674 16.3064 113.056 20.446C115.66 20.5582 119.839 20.3629 121.855 22.2914C122.432 22.84 122.679 23.4718 122.601 24.2656C122.463 25.6871 121.232 26.6929 120.248 27.5782C119.726 27.5989 119.205 27.6197 118.683 27.6322C115.455 27.7112 108.865 27.7776 106.597 25.2257C105.651 24.1575 105.532 22.0669 105.535 20.6829C105.545 15.2507 106.154 5.17592 110.041 1.26489Z" fill="var(--fill-0, #004AE3)"/>
<path d="M22.518 12.1626C23.3232 12.1377 24.0907 12.2541 24.8861 12.3663C28.5559 14.698 29.8392 25.6538 30.9626 29.9805C32.3971 29.3612 34.2203 28.53 35.7623 28.3554C37.4748 28.1601 39.5412 28.4759 40.9397 29.5274C41.2131 30.0303 41.4862 30.2797 41.4198 30.8699C41.2492 32.3828 39.5756 33.8292 38.4543 34.6937C34.7181 36.0029 29.8425 38.1267 25.9295 36.8632C23.5737 33.6463 20.5746 20.2175 20.5586 16.1028C20.5513 14.2034 21.256 13.4178 22.518 12.1626Z" fill="var(--fill-0, #004AE3)"/>
</g>
</g>
</svg>
