<svg preserveAspectRatio="none" width="100%" height="100%" overflow="visible" style="display: block;" viewBox="0 0 309.754 139.601" fill="none" xmlns="http://www.w3.org/2000/svg">
<g id="Union">
<mask id="path-1-inside-1_0_5" fill="white">
<path d="M74.7529 3.64237C81.6499 -1.34916 91.0123 -1.19698 97.7432 4.01639L129.95 28.9617H179.203L211.107 4.25077C217.981 -1.07276 227.575 -1.10767 234.486 4.1658L269.831 31.1336C292.892 37.8025 309.754 59.0729 309.754 84.282C309.754 114.834 284.986 139.601 254.434 139.601H55.3203C24.7681 139.601 0.000183508 114.834 0 84.282C0 61.3929 13.9012 41.7502 33.7217 33.3367L74.7529 3.64237Z"/>
</mask>
<path d="M74.7529 3.64237C81.6499 -1.34916 91.0123 -1.19698 97.7432 4.01639L129.95 28.9617H179.203L211.107 4.25077C217.981 -1.07276 227.575 -1.10767 234.486 4.1658L269.831 31.1336C292.892 37.8025 309.754 59.0729 309.754 84.282C309.754 114.834 284.986 139.601 254.434 139.601H55.3203C24.7681 139.601 0.000183508 114.834 0 84.282C0 61.3929 13.9012 41.7502 33.7217 33.3367L74.7529 3.64237Z" fill="var(--fill-0, #D3CEFF)"/>
<path d="M74.7529 3.64237L80.3753 11.4112L80.3754 11.4111L74.7529 3.64237ZM97.7432 4.01639L91.8708 11.598L91.8709 11.5981L97.7432 4.01639ZM129.95 28.9617L124.078 36.5434L126.671 38.5516H129.95V28.9617ZM179.203 28.9617V38.5516H182.483L185.075 36.5434L179.203 28.9617ZM211.107 4.25077L216.98 11.8325L216.98 11.8324L211.107 4.25077ZM234.486 4.1658L240.303 -3.45831L240.303 -3.45832L234.486 4.1658ZM269.831 31.1336L264.014 38.7577L265.442 39.8471L267.167 40.346L269.831 31.1336ZM309.754 84.282L319.344 84.2821V84.282H309.754ZM0 84.282H-9.5899V84.2821L0 84.282ZM33.7217 33.3367L37.4688 42.1642L38.4662 41.7408L39.344 41.1056L33.7217 33.3367ZM74.7529 3.64237L80.3754 11.4111C83.8241 8.91525 88.5055 8.9915 91.8708 11.598L97.7432 4.01639L103.616 -3.56527C93.5191 -11.3855 79.4757 -11.6136 69.1304 -4.12641L74.7529 3.64237ZM97.7432 4.01639L91.8709 11.5981L124.078 36.5434L129.95 28.9617L135.822 21.38L103.615 -3.56534L97.7432 4.01639ZM129.95 28.9617V38.5516H179.203V28.9617V19.3718H129.95V28.9617ZM179.203 28.9617L185.075 36.5434L216.98 11.8325L211.107 4.25077L205.235 -3.33095L173.331 21.38L179.203 28.9617ZM211.107 4.25077L216.98 11.8324C220.416 9.17064 225.213 9.15323 228.669 11.7899L234.486 4.1658L240.303 -3.45832C229.936 -11.3686 215.545 -11.3162 205.235 -3.33091L211.107 4.25077ZM234.486 4.1658L228.669 11.7899L264.014 38.7577L269.831 31.1336L275.648 23.5095L240.303 -3.45831L234.486 4.1658ZM269.831 31.1336L267.167 40.346C286.236 45.8605 300.164 63.4571 300.164 84.282H309.754H319.344C319.344 54.6886 299.547 29.7444 272.495 21.9212L269.831 31.1336ZM309.754 84.282L300.164 84.282C300.164 109.538 279.69 130.011 254.434 130.011V139.601V149.191C290.282 149.191 319.344 120.131 319.344 84.2821L309.754 84.282ZM254.434 139.601V130.011H55.3203V139.601V149.191H254.434V139.601ZM55.3203 139.601V130.011C30.0643 130.011 9.59006 109.538 9.5899 84.282L0 84.282L-9.5899 84.2821C-9.58969 120.131 19.4719 149.191 55.3203 149.191V139.601ZM0 84.282H9.5899C9.5899 65.3757 21.0652 49.1273 37.4688 42.1642L33.7217 33.3367L29.9745 24.5092C6.73728 34.373 -9.5899 57.41 -9.5899 84.282H0ZM33.7217 33.3367L39.344 41.1056L80.3753 11.4112L74.7529 3.64237L69.1306 -4.12651L28.0993 25.5678L33.7217 33.3367Z" fill="var(--stroke-0, #766AF0)" mask="url(#path-1-inside-1_0_5)"/>
</g>
</svg>
