<svg preserveAspectRatio="none" width="100%" height="100%" overflow="visible" style="display: block;" viewBox="0 0 29 38.0625" fill="none" xmlns="http://www.w3.org/2000/svg">
<path id="Icon" d="M3.625 38.0625C2.62812 38.0625 1.77474 37.7076 1.06484 36.9977C0.354948 36.2878 0 35.4344 0 34.4375V16.3125C0 15.3156 0.354948 14.4622 1.06484 13.7523C1.77474 13.0424 2.62812 12.6875 3.625 12.6875H5.4375V9.0625C5.4375 6.55521 6.32109 4.41797 8.08828 2.65078C9.85547 0.883594 11.9927 0 14.5 0C17.0073 0 19.1445 0.883594 20.9117 2.65078C22.6789 4.41797 23.5625 6.55521 23.5625 9.0625V12.6875H25.375C26.3719 12.6875 27.2253 13.0424 27.9352 13.7523C28.6451 14.4622 29 15.3156 29 16.3125V34.4375C29 35.4344 28.6451 36.2878 27.9352 36.9977C27.2253 37.7076 26.3719 38.0625 25.375 38.0625H3.625ZM3.625 34.4375H25.375V16.3125H3.625V34.4375ZM14.5 29C15.4969 29 16.3503 28.6451 17.0602 27.9352C17.7701 27.2253 18.125 26.3719 18.125 25.375C18.125 24.3781 17.7701 23.5247 17.0602 22.8148C16.3503 22.1049 15.4969 21.75 14.5 21.75C13.5031 21.75 12.6497 22.1049 11.9398 22.8148C11.2299 23.5247 10.875 24.3781 10.875 25.375C10.875 26.3719 11.2299 27.2253 11.9398 27.9352C12.6497 28.6451 13.5031 29 14.5 29ZM9.0625 12.6875H19.9375V9.0625C19.9375 7.55208 19.4089 6.26823 18.3516 5.21094C17.2943 4.15365 16.0104 3.625 14.5 3.625C12.9896 3.625 11.7057 4.15365 10.6484 5.21094C9.59115 6.26823 9.0625 7.55208 9.0625 9.0625V12.6875Z" fill="var(--fill-0, #787584)"/>
</svg>
