<svg width="361" height="387" viewBox="0 0 361 387" fill="none" xmlns="http://www.w3.org/2000/svg">
  <ellipse cx="71" cy="121" rx="71" ry="88" fill="#050505"/>
  <ellipse cx="290" cy="121" rx="71" ry="88" fill="#050505"/>
  <path d="M118 18C127 6 143 0 161 0H201C219 0 235 6 244 18L255 34H107L118 18Z" fill="#8C7CF6" stroke="#050505" stroke-width="4"/>
  <rect x="92" y="30" width="177" height="56" rx="26" fill="#766AF0" stroke="#050505" stroke-width="5"/>
  <ellipse cx="180.5" cy="139.5" rx="117.5" ry="124.5" fill="#FFFDF9" stroke="#050505" stroke-width="5"/>
  <ellipse cx="181" cy="143" rx="43" ry="53" fill="#050505"/>
  <ellipse cx="181" cy="210.5" rx="10.5" ry="16.5" fill="#050505"/>
  <path d="M120 201.5L118 201.5C97.1 221.5 84.5 253.6 84.5 292.5C84.5 335.3 110.8 362.5 144 362.5H217C250.2 362.5 276.5 335.3 276.5 292.5C276.5 253.6 263.9 221.5 243 201.5H241" fill="#FFFDF9"/>
  <path d="M120 201.5L118 201.5C97.1 221.5 84.5 253.6 84.5 292.5C84.5 335.3 110.8 362.5 144 362.5H217C250.2 362.5 276.5 335.3 276.5 292.5C276.5 253.6 263.9 221.5 243 201.5H241" stroke="#050505" stroke-width="5" stroke-linecap="round"/>
  <path d="M129 288.5H232V309.5C232 340.2 208.1 365 180 365C151.9 365 129 340.2 129 309.5V288.5Z" fill="#D7D7D9" stroke="#050505" stroke-width="5"/>
  <path d="M103.5 287C101.4 303.1 92.7 314.5 80 314.5C67.1 314.5 58.6 302.6 61.2 286.4" stroke="#050505" stroke-width="5" stroke-linecap="round"/>
  <path d="M257.5 287C259.6 303.1 268.3 314.5 281 314.5C293.9 314.5 302.4 302.6 299.8 286.4" stroke="#050505" stroke-width="5" stroke-linecap="round"/>
  <path d="M145 360.5V382H112C103.7 382 97 375.3 97 367V350.5" fill="#FFFDF9"/>
  <path d="M145 360.5V382H112C103.7 382 97 375.3 97 367V350.5" stroke="#050505" stroke-width="5" stroke-linejoin="round"/>
  <path d="M216 360.5V382H249C257.3 382 264 375.3 264 367V350.5" fill="#FFFDF9"/>
  <path d="M216 360.5V382H249C257.3 382 264 375.3 264 367V350.5" stroke="#050505" stroke-width="5" stroke-linejoin="round"/>
</svg>
