<svg width="361" height="387" viewBox="0 0 361 387" fill="none" xmlns="http://www.w3.org/2000/svg">
  <path d="M113 49C113 18 132 0 156 0C180 0 195 18 195 49V117H113V49Z" fill="#C9C6FF"/>
  <path d="M201 91C201 67 216 49 235 49C254 49 267 67 267 91V131H201V91Z" fill="#8C7CF6"/>
  <path d="M49 123C49 77.7 86.7 41 133 41H229C275.3 41 313 77.7 313 123V183C313 228.3 275.3 265 229 265H133C86.7 265 49 228.3 49 183V123Z" fill="#C9C6FF"/>
  <ellipse cx="103" cy="170" rx="54" ry="56" fill="#C9C6FF"/>
  <ellipse cx="258" cy="170" rx="54" ry="56" fill="#C9C6FF"/>
  <ellipse cx="127" cy="132" rx="16" ry="24" fill="#3A373A"/>
  <ellipse cx="230" cy="132" rx="16" ry="24" fill="#3A373A"/>
  <path d="M178 164C187 164 193 166 193 169C193 172 186 174 178 174C169 174 162 172 162 169C162 166 169 164 178 164Z" fill="#3A373A"/>
  <path d="M178 174V186" stroke="#3A373A" stroke-width="4" stroke-linecap="round"/>
  <path d="M178 186C170 180 162 178 155 178" stroke="#3A373A" stroke-width="4" stroke-linecap="round"/>
  <path d="M178 186C186 180 194 178 201 178" stroke="#3A373A" stroke-width="4" stroke-linecap="round"/>
  <path d="M93 256C93 225 117 200 147 200H212C244 200 269 225 269 256V322C269 358 239 387 202 387H158C122 387 93 358 93 322V256Z" fill="#C9C6FF"/>
  <path d="M77 215C108 202 145 195 181 195C218 195 254 202 285 215V242C285 266 266 286 242 286H120C96 286 77 266 77 242V215Z" fill="#FFFDF9"/>
</svg>
