<svg width="184" height="183" viewBox="0 0 184 183" fill="none" xmlns="http://www.w3.org/2000/svg">
  <path d="M142.5 145.5C114.5 163.5 76 161 48 142.5C31 131.5 19 114.5 13.5 96.5" stroke="#766AF0" stroke-width="9" stroke-linecap="round"/>
  <path d="M28.5 100L8 91L10.5 114" stroke="#766AF0" stroke-width="9" stroke-linecap="round" stroke-linejoin="round"/>
  <path d="M88 160C77.4 160 69 151.6 69 141V128.5C69 122.7 73.7 118 79.5 118C84.3 118 88.4 121.3 89.5 125.8V104C89.5 98.2 94.2 93.5 100 93.5C105.8 93.5 110.5 98.2 110.5 104V119.5C112.8 115.7 116.9 113 121.5 113C128.4 113 134 118.6 134 125.5V133C136.2 129.1 140.4 126.5 145 126.5C151.9 126.5 157.5 132.1 157.5 139V145.5C159.9 142 164.1 139.5 168.8 139.5C175.6 139.5 181.1 145 181.1 151.8V159C181.1 172.2 170.3 183 157.1 183H122C108.6 183 96.4 174.7 88 160Z" fill="white"/>
  <path d="M88 160C77.4 160 69 151.6 69 141V128.5C69 122.7 73.7 118 79.5 118C84.3 118 88.4 121.3 89.5 125.8V104C89.5 98.2 94.2 93.5 100 93.5C105.8 93.5 110.5 98.2 110.5 104V119.5C112.8 115.7 116.9 113 121.5 113C128.4 113 134 118.6 134 125.5V133C136.2 129.1 140.4 126.5 145 126.5C151.9 126.5 157.5 132.1 157.5 139V145.5C159.9 142 164.1 139.5 168.8 139.5C175.6 139.5 181.1 145 181.1 151.8V159C181.1 172.2 170.3 183 157.1 183H122C108.6 183 96.4 174.7 88 160Z" stroke="#050505" stroke-width="7" stroke-linejoin="round"/>
  <path d="M126 39V10" stroke="#050505" stroke-width="7" stroke-linecap="round"/>
  <path d="M157 50L173 28" stroke="#050505" stroke-width="7" stroke-linecap="round"/>
  <path d="M94 50L78 28" stroke="#050505" stroke-width="7" stroke-linecap="round"/>
</svg>
