<svg preserveAspectRatio="none" width="100%" height="100%" overflow="visible" style="display: block;" viewBox="0 0 89.0081 79.7517" fill="none" xmlns="http://www.w3.org/2000/svg">
<g id="Group 116" filter="url(#filter0_d_0_4)">
<path id="Vector 46" d="M48.5601 72.0151C20.7017 76.301 5.77927 61.2663 5.77929 46.8684C-4.26584 20.4163 7.04024 13.4184 24.117 12.0794C32.153 1.69877 45.2116 -2.31904 62.9581 8.06141C91.419 10.7393 84.0526 24.8025 84.3875 37.1914C84.7223 49.5803 83.3831 66.6577 48.5601 72.0151Z" fill="var(--fill-0, white)" stroke="var(--stroke-0, black)" stroke-width="4"/>
<path id="Vector 47" d="M58.3059 46.1616C62.8597 57.68 43.1851 60.9318 37.158 58.9228C33.2881 57.6329 30.9833 55.7379 31.519 48.5055C32.1887 39.4649 52.6137 31.7637 58.3059 46.1616Z" fill="var(--fill-0, black)"/>
<circle id="Ellipse 38" cx="18.742" cy="32.8055" r="7.3664" fill="var(--fill-0, black)"/>
<circle id="Ellipse 39" cx="42.8503" cy="18.0725" r="7.3664" fill="var(--fill-0, black)"/>
<circle id="Ellipse 40" cx="68.9675" cy="27.448" r="7.3664" fill="var(--fill-0, black)"/>
</g>
<defs>
<filter id="filter0_d_0_4" x="0" y="0" width="89.0081" height="79.7517" filterUnits="userSpaceOnUse" color-interpolation-filters="sRGB">
<feFlood flood-opacity="0" result="BackgroundImageFix"/>
<feColorMatrix in="SourceAlpha" type="matrix" values="0 0 0 0 0 0 0 0 0 0 0 0 0 0 0 0 0 0 127 0" result="hardAlpha"/>
<feOffset dx="2" dy="5"/>
<feComposite in2="hardAlpha" operator="out"/>
<feColorMatrix type="matrix" values="0 0 0 0 0.462745 0 0 0 0 0.415686 0 0 0 0 0.941176 0 0 0 1 0"/>
<feBlend mode="normal" in2="BackgroundImageFix" result="effect1_dropShadow_0_4"/>
<feBlend mode="normal" in="SourceGraphic" in2="effect1_dropShadow_0_4" result="shape"/>
</filter>
</defs>
</svg>
