<svg preserveAspectRatio="none" width="100%" height="100%" overflow="visible" style="display: block;" viewBox="0 0 49.7985 40.4478" fill="none" xmlns="http://www.w3.org/2000/svg">
<g id="Group 116">
<path id="Icon" d="M0 38.7561L0.169174 33.9116L6.76982 34.1421C4.77293 32.2938 3.23281 30.0978 2.14946 27.5539C1.06611 25.01 0.575191 22.2847 0.676696 19.378C0.834591 14.8565 2.34642 10.9178 5.21218 7.56195C8.07793 4.2061 11.6291 2.05648 15.8658 1.11309L15.6881 6.19982C12.8269 7.11041 10.4446 8.77538 8.54124 11.1948C6.63784 13.6141 5.63117 16.3983 5.5212 19.5472C5.44507 21.7272 5.80893 23.7508 6.61275 25.618C7.41658 27.4852 8.5421 29.111 9.9893 30.4954L10.1965 24.5609L15.041 24.7301L14.5335 39.2636L0 38.7561ZM26.6448 39.6865C24.6262 39.616 22.9352 38.8496 21.5715 37.3873C20.2079 35.925 19.5613 34.1845 19.6318 32.166C19.6995 30.2282 20.4237 28.5862 21.8046 27.2399C23.1855 25.8936 24.8462 25.2139 26.7869 25.2009C27.5239 23.7715 28.5845 22.6262 29.9687 21.7651C31.3528 20.904 32.8927 20.503 34.5883 20.5622C36.7279 20.637 38.5506 21.3979 40.0562 22.8449C41.5618 24.292 42.4402 26.0506 42.6913 28.1208C44.3868 28.18 45.8198 28.8162 46.99 30.0292C48.1602 31.2423 48.7165 32.6764 48.6587 34.3316C48.5994 36.0272 47.9637 37.45 46.7513 38.6001C45.539 39.7501 44.085 40.2955 42.3894 40.2363L26.6448 39.6865ZM34.4306 18.1315C34.2058 16.4665 33.7144 14.9133 32.9563 13.4722C32.1982 12.031 31.2528 10.7449 30.1202 9.61404L29.9129 15.5486L25.0684 15.3794L25.5759 0.84587L40.1095 1.35339L39.9403 6.1979L33.3396 5.9674C35.022 7.56211 36.3824 9.40831 37.4207 11.506C38.459 13.6037 39.0973 15.8693 39.3357 18.3028L34.4306 18.1315ZM26.814 34.842L42.5586 35.3918C42.8816 35.4031 43.1684 35.2919 43.4191 35.0581C43.6698 34.8243 43.8008 34.546 43.812 34.223C43.8233 33.9 43.7121 33.6132 43.4783 33.3625C43.2445 33.1118 42.9662 32.9808 42.6432 32.9696L38.4043 32.8215L38.51 29.7937C38.5509 28.623 38.172 27.6093 37.3733 26.7528C36.5746 25.8963 35.5898 25.4476 34.4191 25.4068C33.2483 25.3659 32.2347 25.7448 31.3782 26.5435C30.5217 27.3422 30.073 28.3269 30.0321 29.4977L30.011 30.1032L26.9831 29.9975C26.2968 29.9735 25.7134 30.1856 25.233 30.6336C24.7525 31.0817 24.5003 31.6489 24.4763 32.3352C24.4523 33.0215 24.6644 33.6049 25.1124 34.0853C25.5605 34.5658 26.1277 34.818 26.814 34.842Z" fill="var(--fill-0, white)"/>
</g>
</svg>
