<svg preserveAspectRatio="none" width="100%" height="100%" overflow="visible" style="display: block;" viewBox="0 0 45 45" fill="none" xmlns="http://www.w3.org/2000/svg">
<path id="Icon" d="M15.75 27.5625C14.9625 27.5625 14.2969 27.2906 13.7531 26.7469C13.2094 26.2031 12.9375 25.5375 12.9375 24.75C12.9375 23.9625 13.2094 23.2969 13.7531 22.7531C14.2969 22.2094 14.9625 21.9375 15.75 21.9375C16.5375 21.9375 17.2031 22.2094 17.7469 22.7531C18.2906 23.2969 18.5625 23.9625 18.5625 24.75C18.5625 25.5375 18.2906 26.2031 17.7469 26.7469C17.2031 27.2906 16.5375 27.5625 15.75 27.5625ZM29.25 27.5625C28.4625 27.5625 27.7969 27.2906 27.2531 26.7469C26.7094 26.2031 26.4375 25.5375 26.4375 24.75C26.4375 23.9625 26.7094 23.2969 27.2531 22.7531C27.7969 22.2094 28.4625 21.9375 29.25 21.9375C30.0375 21.9375 30.7031 22.2094 31.2469 22.7531C31.7906 23.2969 32.0625 23.9625 32.0625 24.75C32.0625 25.5375 31.7906 26.2031 31.2469 26.7469C30.7031 27.2906 30.0375 27.5625 29.25 27.5625ZM22.5 40.5C27.525 40.5 31.7813 38.7563 35.2688 35.2688C38.7563 31.7813 40.5 27.525 40.5 22.5C40.5 21.6 40.4437 20.7281 40.3312 19.8844C40.2187 19.0406 40.0125 18.225 39.7125 17.4375C38.925 17.625 38.1375 17.7656 37.35 17.8594C36.5625 17.9531 35.7375 18 34.875 18C31.4625 18 28.2375 17.2688 25.2 15.8063C22.1625 14.3438 19.575 12.3 17.4375 9.675C16.2375 12.6 14.5219 15.1406 12.2906 17.2969C10.0594 19.4531 7.4625 21.075 4.5 22.1625C4.5 22.2375 4.5 22.2938 4.5 22.3313C4.5 22.3688 4.5 22.425 4.5 22.5C4.5 27.525 6.24375 31.7813 9.73125 35.2688C13.2187 38.7563 17.475 40.5 22.5 40.5ZM22.5 45C19.3875 45 16.4625 44.4094 13.725 43.2281C10.9875 42.0469 8.60625 40.4438 6.58125 38.4188C4.55625 36.3938 2.95312 34.0125 1.77188 31.275C0.590625 28.5375 0 25.6125 0 22.5C0 19.3875 0.590625 16.4625 1.77188 13.725C2.95312 10.9875 4.55625 8.60625 6.58125 6.58125C8.60625 4.55625 10.9875 2.95312 13.725 1.77188C16.4625 0.590625 19.3875 0 22.5 0C25.6125 0 28.5375 0.590625 31.275 1.77188C34.0125 2.95312 36.3938 4.55625 38.4188 6.58125C40.4438 8.60625 42.0469 10.9875 43.2281 13.725C44.4094 16.4625 45 19.3875 45 22.5C45 25.6125 44.4094 28.5375 43.2281 31.275C42.0469 34.0125 40.4438 36.3938 38.4188 38.4188C36.3938 40.4438 34.0125 42.0469 31.275 43.2281C28.5375 44.4094 25.6125 45 22.5 45Z" fill="var(--fill-0, white)"/>
</svg>
